<svg width="125" height="117" viewBox="0 0 125 117" fill="none" xmlns="http://www.w3.org/2000/svg">
<mask id="path-1-inside-1" fill="white">
<path fill-rule="evenodd" clip-rule="evenodd" d="M14.9786 31.8665C6.6576 44.4286 3.36784 59.6617 5.76317 74.5382C8.15851 89.4146 16.0636 102.845 27.9072 112.161C28.9924 113.014 29.1802 114.586 28.3266 115.671C27.4731 116.756 25.9013 116.944 24.8161 116.091C11.9855 105.999 3.4217 91.4492 0.826754 75.333C-1.76819 59.2169 1.79571 42.7143 10.8101 29.1053C19.8245 15.4964 33.6295 5.77732 49.4811 1.87995C65.3327 -2.01743 82.0705 0.192196 96.3677 8.06966C97.577 8.73596 98.0172 10.2564 97.3509 11.4657C96.6846 12.675 95.1641 13.1152 93.9548 12.4489C80.7574 5.17742 65.3072 3.13776 50.6749 6.73535C36.0426 10.3329 23.2996 19.3043 14.9786 31.8665ZM105.349 65.3492C105.349 87.4406 87.4406 105.349 65.3492 105.349C43.2579 105.349 25.3492 87.4406 25.3492 65.3492C25.3492 43.2578 43.2579 25.3492 65.3492 25.3492C87.4406 25.3492 105.349 43.2578 105.349 65.3492ZM64.9643 113.901C55.273 113.913 45.7957 111.052 37.7307 105.678C29.6657 100.304 23.3753 92.6595 19.655 83.7108C15.9347 74.762 14.9516 64.911 16.83 55.4035C16.937 54.8617 16.5845 54.3357 16.0427 54.2286C15.5009 54.1216 14.9749 54.4741 14.8679 55.0159C12.9129 64.9114 13.9361 75.1645 17.8083 84.4785C21.6804 93.7926 28.2275 101.749 36.6217 107.342C45.0159 112.935 54.8801 115.914 64.9669 115.901C75.0537 115.887 84.9102 112.884 93.2898 107.269C93.7486 106.961 93.8713 106.34 93.5639 105.881C93.2565 105.423 92.6353 105.3 92.1765 105.607C84.1255 111.002 74.6556 113.888 64.9643 113.901Z"/>
</mask>
<path fill-rule="evenodd" clip-rule="evenodd" d="M14.9786 31.8665C6.6576 44.4286 3.36784 59.6617 5.76317 74.5382C8.15851 89.4146 16.0636 102.845 27.9072 112.161C28.9924 113.014 29.1802 114.586 28.3266 115.671C27.4731 116.756 25.9013 116.944 24.8161 116.091C11.9855 105.999 3.4217 91.4492 0.826754 75.333C-1.76819 59.2169 1.79571 42.7143 10.8101 29.1053C19.8245 15.4964 33.6295 5.77732 49.4811 1.87995C65.3327 -2.01743 82.0705 0.192196 96.3677 8.06966C97.577 8.73596 98.0172 10.2564 97.3509 11.4657C96.6846 12.675 95.1641 13.1152 93.9548 12.4489C80.7574 5.17742 65.3072 3.13776 50.6749 6.73535C36.0426 10.3329 23.2996 19.3043 14.9786 31.8665ZM105.349 65.3492C105.349 87.4406 87.4406 105.349 65.3492 105.349C43.2579 105.349 25.3492 87.4406 25.3492 65.3492C25.3492 43.2578 43.2579 25.3492 65.3492 25.3492C87.4406 25.3492 105.349 43.2578 105.349 65.3492ZM64.9643 113.901C55.273 113.913 45.7957 111.052 37.7307 105.678C29.6657 100.304 23.3753 92.6595 19.655 83.7108C15.9347 74.762 14.9516 64.911 16.83 55.4035C16.937 54.8617 16.5845 54.3357 16.0427 54.2286C15.5009 54.1216 14.9749 54.4741 14.8679 55.0159C12.9129 64.9114 13.9361 75.1645 17.8083 84.4785C21.6804 93.7926 28.2275 101.749 36.6217 107.342C45.0159 112.935 54.8801 115.914 64.9669 115.901C75.0537 115.887 84.9102 112.884 93.2898 107.269C93.7486 106.961 93.8713 106.34 93.5639 105.881C93.2565 105.423 92.6353 105.3 92.1765 105.607C84.1255 111.002 74.6556 113.888 64.9643 113.901Z" fill="#FCF9F9"/>
<path d="M90.6011 14.254L90.4041 14.7136L90.4041 14.7136L90.6011 14.254ZM43.3326 12.7179L43.1659 12.2465L43.3326 12.7179ZM124.773 47.2146C118.046 32.2036 105.918 20.2732 90.798 13.7945L90.4041 14.7136C105.293 21.0934 117.236 32.8418 123.86 47.6236L124.773 47.2146ZM90.798 13.7945C75.6783 7.31574 58.6744 6.76313 43.1659 12.2465L43.4993 13.1893C58.771 7.78965 75.5153 8.33382 90.4041 14.7136L90.798 13.7945ZM43.1659 12.2465C31.0045 16.5464 20.4609 24.3112 12.7694 34.4752L13.5668 35.0787C21.1409 25.0698 31.5235 17.4235 43.4993 13.1893L43.1659 12.2465ZM-0.342722 69.4664C-0.834987 76.5599 -0.173299 83.7458 1.67501 90.7384L2.64181 90.4829C0.821711 83.597 0.170129 76.5209 0.654879 69.5356L-0.342722 69.4664ZM5.76317 74.5382L4.77589 74.6972L4.77589 74.6972L5.76317 74.5382ZM14.9786 31.8665L15.8123 32.4187L15.8123 32.4187L14.9786 31.8665ZM27.9072 112.161L27.2889 112.947L27.2889 112.947L27.9072 112.161ZM28.3266 115.671L27.5406 115.053L27.5406 115.053L28.3266 115.671ZM24.8161 116.091L25.4343 115.305L25.4343 115.305L24.8161 116.091ZM0.826754 75.333L-0.16053 75.492L-0.16053 75.492L0.826754 75.333ZM10.8101 29.1053L9.97643 28.5531L10.8101 29.1053ZM49.4811 1.87995L49.7199 2.85103L49.7199 2.85103L49.4811 1.87995ZM96.3677 8.06966L95.8851 8.94551L95.8851 8.94551L96.3677 8.06966ZM97.3509 11.4657L98.2268 11.9483L98.2268 11.9483L97.3509 11.4657ZM93.9548 12.4489L93.4723 13.3248L93.4723 13.3248L93.9548 12.4489ZM50.6749 6.73535L50.9136 7.70643L50.9136 7.70643L50.6749 6.73535ZM37.7307 105.678L38.2852 104.846L38.2852 104.846L37.7307 105.678ZM64.9643 113.901L64.963 112.901L64.963 112.901L64.9643 113.901ZM19.655 83.7108L20.5784 83.3269L20.5784 83.3269L19.655 83.7108ZM16.83 55.4035L17.811 55.5973L17.811 55.5973L16.83 55.4035ZM16.0427 54.2286L16.2366 53.2476L16.2365 53.2476L16.0427 54.2286ZM14.8679 55.0159L15.8489 55.2097L15.8489 55.2097L14.8679 55.0159ZM17.8083 84.4785L18.7317 84.0947L18.7317 84.0947L17.8083 84.4785ZM36.6217 107.342L37.1762 106.51L37.1762 106.51L36.6217 107.342ZM64.9669 115.901L64.9682 116.901L64.9669 115.901ZM93.2898 107.269L92.7332 106.438L92.7332 106.438L93.2898 107.269ZM92.1765 105.607L91.6199 104.777L91.6199 104.777L92.1765 105.607ZM6.75046 74.3792C4.39505 59.7507 7.62997 44.7715 15.8123 32.4187L14.1449 31.3143C5.68522 44.0858 2.34063 59.5728 4.77589 74.6972L6.75046 74.3792ZM28.5254 111.375C16.8792 102.214 9.10587 89.0077 6.75046 74.3792L4.77589 74.6972C7.21115 89.8215 15.2479 103.476 27.2889 112.947L28.5254 111.375ZM29.1126 116.289C30.3077 114.77 30.0447 112.57 28.5254 111.375L27.2889 112.947C27.9401 113.459 28.0528 114.402 27.5406 115.053L29.1126 116.289ZM24.1979 116.877C25.7172 118.072 27.9176 117.809 29.1126 116.289L27.5406 115.053C27.0285 115.704 26.0854 115.817 25.4343 115.305L24.1979 116.877ZM-0.16053 75.492C2.47434 91.8561 11.1699 106.63 24.1979 116.877L25.4343 115.305C12.8011 105.368 4.36906 91.0423 1.81404 75.1741L-0.16053 75.492ZM9.97643 28.5531C0.823336 42.3715 -2.7954 59.1279 -0.16053 75.492L1.81404 75.1741C-0.740985 59.3058 2.76809 43.0572 11.6438 29.6576L9.97643 28.5531ZM49.2423 0.908869C33.1468 4.8662 19.1295 14.7348 9.97643 28.5531L11.6438 29.6576C20.5196 16.258 34.1121 6.68844 49.7199 2.85103L49.2423 0.908869ZM96.8503 7.1938C82.3331 -0.804849 65.3379 -3.04847 49.2423 0.908869L49.7199 2.85103C65.3276 -0.986395 81.8079 1.18924 95.8851 8.94551L96.8503 7.1938ZM98.2268 11.9483C99.1596 10.2553 98.5433 8.12662 96.8503 7.1938L95.8851 8.94551C96.6107 9.34529 96.8748 10.2576 96.4751 10.9832L98.2268 11.9483ZM93.4723 13.3248C95.1653 14.2576 97.2939 13.6413 98.2268 11.9483L96.4751 10.9832C96.0753 11.7087 95.163 11.9728 94.4374 11.5731L93.4723 13.3248ZM50.9136 7.70643C65.3021 4.1688 80.4948 6.17447 93.4723 13.3248L94.4374 11.5731C81.02 4.18038 65.3123 2.10672 50.4361 5.76427L50.9136 7.70643ZM15.8123 32.4187C23.9946 20.0659 36.5252 11.244 50.9136 7.70643L50.4361 5.76427C35.56 9.42181 22.6046 18.5427 14.1449 31.3143L15.8123 32.4187ZM65.3492 106.349C87.9929 106.349 106.349 87.9928 106.349 65.3492H104.349C104.349 86.8883 86.8884 104.349 65.3492 104.349V106.349ZM24.3492 65.3492C24.3492 87.9928 42.7056 106.349 65.3492 106.349V104.349C43.8101 104.349 26.3492 86.8883 26.3492 65.3492H24.3492ZM65.3492 24.3492C42.7056 24.3492 24.3492 42.7055 24.3492 65.3492H26.3492C26.3492 43.8101 43.8101 26.3492 65.3492 26.3492V24.3492ZM106.349 65.3492C106.349 42.7055 87.9929 24.3492 65.3492 24.3492V26.3492C86.8884 26.3492 104.349 43.8101 104.349 65.3492H106.349ZM37.1762 106.51C45.4058 111.993 55.0765 114.913 64.9656 114.901L64.963 112.901C55.4695 112.913 46.1856 110.11 38.2852 104.846L37.1762 106.51ZM18.7317 84.0947C22.5279 93.226 28.9466 101.027 37.1762 106.51L38.2852 104.846C30.3848 99.5816 24.2228 92.093 20.5784 83.3269L18.7317 84.0947ZM15.8489 55.2097C13.9322 64.9112 14.9354 74.9633 18.7317 84.0947L20.5784 83.3269C16.934 74.5608 15.971 64.9108 17.811 55.5973L15.8489 55.2097ZM15.8489 55.2097L15.8489 55.2097L17.811 55.5973C18.0251 54.5137 17.3202 53.4617 16.2366 53.2476L15.8489 55.2097ZM15.8489 55.2097L15.8489 55.2097L16.2365 53.2476C15.1529 53.0335 14.1009 53.7384 13.8868 54.822L15.8489 55.2097ZM18.7317 84.0947C14.9354 74.9633 13.9322 64.9112 15.8489 55.2097L13.8868 54.822C11.8935 64.9116 12.9368 75.3658 16.8849 84.8624L18.7317 84.0947ZM37.1762 106.51C28.9466 101.027 22.5279 93.226 18.7317 84.0947L16.8849 84.8624C20.833 94.3591 27.5084 102.472 36.0672 108.174L37.1762 106.51ZM64.9656 114.901C55.0765 114.913 45.4058 111.993 37.1762 106.51L36.0672 108.174C44.626 113.877 54.6836 116.914 64.9682 116.901L64.9656 114.901ZM92.7332 106.438C84.5178 111.943 74.8547 114.888 64.9656 114.901L64.9682 116.901C75.2528 116.887 85.3025 113.824 93.8465 108.1L92.7332 106.438ZM92.7332 106.438L92.7332 106.438L93.8465 108.1C94.7641 107.485 95.0095 106.242 94.3947 105.325L92.7332 106.438ZM92.7332 106.438L92.7332 106.438L94.3947 105.325C93.7798 104.407 92.5375 104.162 91.6199 104.777L92.7332 106.438ZM64.9656 114.901C74.8547 114.888 84.5178 111.943 92.7332 106.438L91.6199 104.777C83.7332 110.061 74.4565 112.888 64.963 112.901L64.9656 114.901Z" fill="#FCF9F9" mask="url(#path-1-inside-1)"/>
</svg>
