<svg width="125" height="118" viewBox="0 0 125 118" fill="none" xmlns="http://www.w3.org/2000/svg">
<mask id="path-1-inside-1" fill="white">
<path fill-rule="evenodd" clip-rule="evenodd" d="M15.6293 32.5173C7.30835 45.0794 4.0186 60.3126 6.41393 75.189C8.80927 90.0655 16.7143 103.496 28.5579 112.811C29.6432 113.665 29.831 115.237 28.9774 116.322C28.1238 117.407 26.5521 117.595 25.4668 116.741C12.6363 106.65 4.07246 92.1 1.47751 75.9838C-1.11743 59.8677 2.44647 43.3651 11.4609 29.7562C20.4753 16.1472 34.2802 6.42814 50.1319 2.53077C65.9835 -1.36662 82.7213 0.843014 97.0185 8.72047C98.2278 9.38677 98.668 10.9073 98.0017 12.1165C97.3354 13.3259 95.8149 13.766 94.6056 13.0997C81.4082 5.82824 65.9579 3.78858 51.3256 7.38617C36.6933 10.9837 23.9503 19.9552 15.6293 32.5173ZM106 66C106 88.0914 88.0914 106 66 106C43.9086 106 26 88.0914 26 66C26 43.9086 43.9086 26 66 26C88.0914 26 106 43.9086 106 66ZM65.6151 114.551C55.9238 114.564 46.4464 111.702 38.3814 106.329C30.3165 100.955 24.0261 93.3104 20.3058 84.3616C16.5855 75.4128 15.6024 65.5618 17.4807 56.0543C17.5878 55.5125 17.2353 54.9865 16.6935 54.8795C16.1517 54.7724 15.6257 55.1249 15.5186 55.6667C13.5636 65.5623 14.5869 75.8153 18.459 85.1294C22.3312 94.4434 28.8783 102.4 37.2725 107.993C45.6666 113.586 55.5308 116.564 65.6177 116.551C75.7045 116.538 85.5609 113.534 93.9406 107.92C94.3994 107.612 94.5221 106.991 94.2147 106.532C93.9073 106.073 93.2861 105.951 92.8273 106.258C84.7763 111.653 75.3063 114.539 65.6151 114.551Z"/>
</mask>
<path fill-rule="evenodd" clip-rule="evenodd" d="M15.6293 32.5173C7.30835 45.0794 4.0186 60.3126 6.41393 75.189C8.80927 90.0655 16.7143 103.496 28.5579 112.811C29.6432 113.665 29.831 115.237 28.9774 116.322C28.1238 117.407 26.5521 117.595 25.4668 116.741C12.6363 106.65 4.07246 92.1 1.47751 75.9838C-1.11743 59.8677 2.44647 43.3651 11.4609 29.7562C20.4753 16.1472 34.2802 6.42814 50.1319 2.53077C65.9835 -1.36662 82.7213 0.843014 97.0185 8.72047C98.2278 9.38677 98.668 10.9073 98.0017 12.1165C97.3354 13.3259 95.8149 13.766 94.6056 13.0997C81.4082 5.82824 65.9579 3.78858 51.3256 7.38617C36.6933 10.9837 23.9503 19.9552 15.6293 32.5173ZM106 66C106 88.0914 88.0914 106 66 106C43.9086 106 26 88.0914 26 66C26 43.9086 43.9086 26 66 26C88.0914 26 106 43.9086 106 66ZM65.6151 114.551C55.9238 114.564 46.4464 111.702 38.3814 106.329C30.3165 100.955 24.0261 93.3104 20.3058 84.3616C16.5855 75.4128 15.6024 65.5618 17.4807 56.0543C17.5878 55.5125 17.2353 54.9865 16.6935 54.8795C16.1517 54.7724 15.6257 55.1249 15.5186 55.6667C13.5636 65.5623 14.5869 75.8153 18.459 85.1294C22.3312 94.4434 28.8783 102.4 37.2725 107.993C45.6666 113.586 55.5308 116.564 65.6177 116.551C75.7045 116.538 85.5609 113.534 93.9406 107.92C94.3994 107.612 94.5221 106.991 94.2147 106.532C93.9073 106.073 93.2861 105.951 92.8273 106.258C84.7763 111.653 75.3063 114.539 65.6151 114.551Z" fill="#212121"/>
<path d="M91.2518 14.9049L91.0549 15.3644L91.0549 15.3644L91.2518 14.9049ZM43.9834 13.3687L43.8167 12.8973L43.9834 13.3687ZM125.424 47.8655C118.697 32.8545 106.568 20.924 91.4488 14.4453L91.0549 15.3644C105.944 21.7442 117.887 33.4926 124.511 48.2744L125.424 47.8655ZM91.4488 14.4453C76.329 7.96656 59.3252 7.41395 43.8167 12.8973L44.1501 13.8401C59.4217 8.44047 76.166 8.98464 91.0549 15.3644L91.4488 14.4453ZM43.8167 12.8973C31.6553 17.1972 21.1117 24.962 13.4201 35.126L14.2176 35.7295C21.7917 25.7206 32.1743 18.0744 44.1501 13.8401L43.8167 12.8973ZM0.308035 70.1172C-0.18423 77.2107 0.477458 84.3966 2.32577 91.3892L3.29257 91.1337C1.47247 84.2478 0.820885 77.1717 1.30564 70.1865L0.308035 70.1172ZM6.41393 75.189L5.42665 75.348L5.42665 75.348L6.41393 75.189ZM15.6293 32.5173L16.463 33.0695L16.463 33.0695L15.6293 32.5173ZM28.5579 112.811L27.9397 113.597L27.9397 113.597L28.5579 112.811ZM28.9774 116.322L28.1914 115.704L28.1914 115.704L28.9774 116.322ZM25.4668 116.741L26.085 115.955L26.085 115.955L25.4668 116.741ZM1.47751 75.9838L0.490227 76.1428L0.490227 76.1428L1.47751 75.9838ZM11.4609 29.7562L10.6272 29.2039L11.4609 29.7562ZM50.1319 2.53077L50.3706 3.50185L50.3706 3.50185L50.1319 2.53077ZM97.0185 8.72047L96.5359 9.59633L96.5359 9.59633L97.0185 8.72047ZM98.0017 12.1165L98.8775 12.5991L98.8775 12.5991L98.0017 12.1165ZM94.6056 13.0997L94.123 13.9756L94.123 13.9756L94.6056 13.0997ZM51.3256 7.38617L51.5644 8.35725L51.5644 8.35725L51.3256 7.38617ZM38.3814 106.329L38.9359 105.497L38.9359 105.497L38.3814 106.329ZM65.6151 114.551L65.6138 113.551L65.6138 113.551L65.6151 114.551ZM20.3058 84.3616L21.2292 83.9777L21.2292 83.9777L20.3058 84.3616ZM17.4807 56.0543L18.4617 56.2481L18.4617 56.2481L17.4807 56.0543ZM16.6935 54.8795L16.8873 53.8984L16.8873 53.8984L16.6935 54.8795ZM15.5186 55.6667L16.4997 55.8605L16.4997 55.8605L15.5186 55.6667ZM18.459 85.1294L19.3824 84.7455L19.3824 84.7455L18.459 85.1294ZM37.2725 107.993L37.827 107.161L37.8269 107.161L37.2725 107.993ZM65.6177 116.551L65.619 117.551L65.6177 116.551ZM93.9406 107.92L93.3839 107.089L93.3839 107.089L93.9406 107.92ZM92.8273 106.258L92.2706 105.427L92.2706 105.427L92.8273 106.258ZM7.40121 75.03C5.0458 60.4015 8.28073 45.4223 16.463 33.0695L14.7957 31.9651C6.33598 44.7366 2.99139 60.2236 5.42665 75.348L7.40121 75.03ZM29.1761 112.025C17.5299 102.865 9.75663 89.6585 7.40121 75.03L5.42665 75.348C7.8619 90.4724 15.8987 104.127 27.9397 113.597L29.1761 112.025ZM29.7634 116.94C30.9584 115.421 30.6955 113.22 29.1761 112.025L27.9397 113.597C28.5908 114.11 28.7035 115.053 28.1914 115.704L29.7634 116.94ZM24.8486 117.527C26.368 118.722 28.5684 118.46 29.7634 116.94L28.1914 115.704C27.6792 116.355 26.7362 116.468 26.085 115.955L24.8486 117.527ZM0.490227 76.1428C3.12509 92.5069 11.8206 107.281 24.8486 117.527L26.085 115.955C13.4519 106.019 5.01982 91.6931 2.46479 75.8249L0.490227 76.1428ZM10.6272 29.2039C1.47409 43.0223 -2.14464 59.7787 0.490227 76.1428L2.46479 75.8249C-0.0902277 59.9567 3.41885 43.708 12.2946 30.3084L10.6272 29.2039ZM49.8931 1.55969C33.7976 5.51702 19.7803 15.3856 10.6272 29.2039L12.2946 30.3084C21.1703 16.9088 34.7628 7.33926 50.3706 3.50185L49.8931 1.55969ZM97.501 7.84462C82.9839 -0.154031 65.9886 -2.39766 49.8931 1.55969L50.3706 3.50185C65.9784 -0.335577 82.4587 1.84006 96.5359 9.59633L97.501 7.84462ZM98.8775 12.5991C99.8103 10.9061 99.1941 8.77744 97.501 7.84462L96.5359 9.59633C97.2615 9.99611 97.5256 10.9084 97.1258 11.634L98.8775 12.5991ZM94.123 13.9756C95.816 14.9084 97.9447 14.2921 98.8775 12.5991L97.1258 11.634C96.726 12.3596 95.8137 12.6237 95.0882 12.2239L94.123 13.9756ZM51.5644 8.35725C65.9528 4.81962 81.1456 6.82529 94.123 13.9756L95.0882 12.2239C81.6708 4.83119 65.963 2.75754 51.0869 6.41509L51.5644 8.35725ZM16.463 33.0695C24.6454 20.7168 37.176 11.8949 51.5644 8.35725L51.0869 6.41509C36.2107 10.0726 23.2553 19.1936 14.7957 31.9651L16.463 33.0695ZM66 107C88.6437 107 107 88.6437 107 66H105C105 87.5391 87.5391 105 66 105V107ZM25 66C25 88.6437 43.3563 107 66 107V105C44.4609 105 27 87.5391 27 66H25ZM66 25C43.3563 25 25 43.3563 25 66H27C27 44.4609 44.4609 27 66 27V25ZM107 66C107 43.3563 88.6437 25 66 25V27C87.5391 27 105 44.4609 105 66H107ZM37.827 107.161C46.0565 112.644 55.7273 115.564 65.6164 115.551L65.6138 113.551C56.1203 113.564 46.8363 110.761 38.9359 105.497L37.827 107.161ZM19.3824 84.7455C23.1786 93.8769 29.5974 101.677 37.827 107.161L38.9359 105.497C31.0355 100.232 24.8735 92.7438 21.2292 83.9777L19.3824 84.7455ZM16.4997 55.8605C14.583 65.562 15.5862 75.6141 19.3824 84.7455L21.2292 83.9777C17.5848 75.2116 16.6217 65.5616 18.4617 56.2481L16.4997 55.8605ZM16.4997 55.8605L16.4997 55.8605L18.4617 56.2481C18.6758 55.1645 17.9709 54.1125 16.8873 53.8984L16.4997 55.8605ZM16.4997 55.8605L16.4997 55.8605L16.8873 53.8984C15.8037 53.6843 14.7517 54.3892 14.5376 55.4729L16.4997 55.8605ZM19.3824 84.7455C15.5862 75.6141 14.583 65.562 16.4997 55.8605L14.5376 55.4729C12.5442 65.5625 13.5876 76.0166 17.5356 85.5132L19.3824 84.7455ZM37.8269 107.161C29.5974 101.677 23.1786 93.8769 19.3824 84.7455L17.5356 85.5132C21.4837 95.0099 28.1592 103.123 36.718 108.825L37.8269 107.161ZM65.6164 115.551C55.7273 115.564 46.0565 112.644 37.827 107.161L36.718 108.825C45.2767 114.528 55.3343 117.565 65.619 117.551L65.6164 115.551ZM93.3839 107.089C85.1686 112.594 75.5054 115.539 65.6164 115.551L65.619 117.551C75.9036 117.538 85.9533 114.475 94.4972 108.75L93.3839 107.089ZM93.3839 107.089L93.3839 107.089L94.4972 108.75C95.4148 108.136 95.6603 106.893 95.0454 105.976L93.3839 107.089ZM93.3839 107.089L93.3839 107.089L95.0454 105.976C94.4306 105.058 93.1882 104.813 92.2706 105.427L93.3839 107.089ZM65.6164 115.551C75.5054 115.539 85.1686 112.594 93.3839 107.089L92.2706 105.427C84.3839 110.712 75.1073 113.539 65.6138 113.551L65.6164 115.551Z" fill="#212121" mask="url(#path-1-inside-1)"/>
</svg>
