<svg width="125" height="117" viewBox="0 0 125 117" fill="none" xmlns="http://www.w3.org/2000/svg">
<path fill-rule="evenodd" clip-rule="evenodd" d="M6.15934 73.4451C4.20197 58.5047 7.93771 43.3748 16.6241 31.0624C25.3104 18.7501 38.3114 10.1568 53.0431 6.99057C67.7747 3.82429 83.1584 6.31685 96.1365 13.9728C97.3258 14.6744 98.8585 14.279 99.56 13.0898C100.262 11.9006 99.8662 10.3679 98.677 9.66632C84.6173 1.37234 67.9517 -1.32793 51.9924 2.1022C36.0331 5.53232 21.9487 14.8417 12.5385 28.1801C3.12827 41.5184 -0.918782 57.9092 1.2017 74.0946C3.32219 90.28 11.455 105.075 23.9836 115.539C25.0433 116.424 26.6199 116.283 27.505 115.223C28.3901 114.163 28.2485 112.587 27.1888 111.702C15.6239 102.042 8.11671 88.3855 6.15934 73.4451ZM66 106C88.0914 106 106 88.0914 106 66C106 43.9086 88.0914 26 66 26C43.9086 26 26 43.9086 26 66C26 88.0914 43.9086 106 66 106ZM34.2085 103.216C41.938 109.648 51.4592 113.547 61.4801 114.382C71.501 115.218 81.5364 112.95 90.2243 107.887C90.7015 107.608 91.3137 107.77 91.5918 108.247C91.8699 108.724 91.7085 109.336 91.2314 109.614C82.1888 114.884 71.7439 117.245 61.3139 116.375C50.884 115.506 40.9742 111.448 32.9292 104.753C24.8843 98.0587 19.0939 89.051 16.3437 78.9526C13.5936 68.8543 14.0169 58.1543 17.5562 48.3048C17.743 47.7851 18.3157 47.5151 18.8355 47.7019C19.3552 47.8887 19.6251 48.4614 19.4384 48.9811C16.0378 58.4444 15.6311 68.7247 18.2734 78.4271C20.9157 88.1294 26.4791 96.7839 34.2085 103.216Z" fill="#F66366"/>
</svg>
