<svg width="129" height="116" viewBox="0 0 129 116" fill="none" xmlns="http://www.w3.org/2000/svg">
<path fill-rule="evenodd" clip-rule="evenodd" d="M9.47266 72.4046C7.61316 58.2112 11.1621 43.8378 19.4142 32.1411C27.6662 20.4444 40.0172 12.2807 54.0122 9.2728C68.0073 6.26484 82.6218 8.63277 94.951 15.9059C96.8537 17.0284 99.3061 16.3958 100.429 14.4931C101.551 12.5904 100.918 10.138 99.0158 9.01553C84.9561 0.721556 68.2904 -1.97872 52.3312 1.45141C36.3719 4.88154 22.2875 14.1909 12.8772 27.5293C3.46702 40.8676 -0.580037 57.2584 1.54045 73.4438C3.66093 89.6292 11.7937 104.424 24.3223 114.888C26.0179 116.305 28.5404 116.078 29.9565 114.382C31.3727 112.687 31.1462 110.164 29.4506 108.748C18.464 99.5721 11.3322 86.5979 9.47266 72.4046ZM65.9789 99.9896C85.3089 99.9896 100.979 84.3196 100.979 64.9896C100.979 45.6596 85.3089 29.9896 65.9789 29.9896C46.6489 29.9896 30.9789 45.6596 30.9789 64.9896C30.9789 84.3196 46.6489 99.9896 65.9789 99.9896ZM38.1395 97.7078C44.9225 103.352 53.2778 106.773 62.0717 107.507C70.8655 108.24 79.6721 106.25 87.2962 101.806C89.2048 100.694 91.6538 101.34 92.7662 103.248C93.8786 105.157 93.233 107.606 91.3244 108.718C82.2819 113.988 71.8369 116.349 61.407 115.479C50.977 114.609 41.0672 110.552 33.0223 103.857C24.9773 97.1624 19.1869 88.1547 16.4367 78.0563C13.6866 67.958 14.1099 57.258 17.6492 47.4085C18.3963 45.3295 20.6873 44.2498 22.7662 44.9969C24.8452 45.7439 25.925 48.0349 25.1779 50.1139C22.1938 58.4184 21.8368 67.4399 24.1556 75.9542C26.4744 84.4685 31.3565 92.0632 38.1395 97.7078Z" fill="#F6F7EB"/>
</svg>
