<svg width="128" height="116" viewBox="0 0 128 116" fill="none" xmlns="http://www.w3.org/2000/svg">
<path fill-rule="evenodd" clip-rule="evenodd" d="M8.48316 72.4046C6.62366 58.2112 10.1726 43.8378 18.4247 32.1411C26.6767 20.4444 39.0277 12.2807 53.0227 9.2728C67.0178 6.26484 81.6323 8.63277 93.9615 15.9059C95.8642 17.0284 98.3166 16.3958 99.4391 14.4931C100.562 12.5904 99.929 10.138 98.0263 9.01553C83.9666 0.721556 67.3009 -1.97872 51.3417 1.45141C35.3824 4.88154 21.298 14.1909 11.8877 27.5293C2.47752 40.8676 -1.56954 57.2584 0.550945 73.4438C2.67143 89.6292 10.8042 104.424 23.3328 114.888C25.0284 116.305 27.5509 116.078 28.967 114.382C30.3832 112.687 30.1567 110.164 28.4611 108.748C17.4745 99.5721 10.3427 86.5979 8.48316 72.4046ZM64.9894 99.9896C84.3194 99.9896 99.9894 84.3196 99.9894 64.9896C99.9894 45.6596 84.3194 29.9896 64.9894 29.9896C45.6594 29.9896 29.9894 45.6596 29.9894 64.9896C29.9894 84.3196 45.6594 99.9896 64.9894 99.9896ZM37.15 97.7078C43.933 103.352 52.2883 106.773 61.0822 107.507C69.876 108.24 78.6826 106.25 86.3067 101.806C88.2153 100.694 90.6643 101.34 91.7767 103.248C92.8891 105.157 92.2435 107.606 90.3349 108.718C81.2924 113.988 70.8474 116.349 60.4175 115.479C49.9875 114.609 40.0777 110.552 32.0327 103.857C23.9878 97.1624 18.1974 88.1547 15.4472 78.0563C12.6971 67.958 13.1204 57.258 16.6597 47.4085C17.4068 45.3295 19.6978 44.2498 21.7767 44.9969C23.8557 45.7439 24.9355 48.0349 24.1884 50.1139C21.2043 58.4184 20.8473 67.4399 23.1661 75.9542C25.4849 84.4685 30.367 92.0632 37.15 97.7078Z" fill="#F66366"/>
</svg>
