<svg width="185" height="52" viewBox="0 0 185 52" fill="none" xmlns="http://www.w3.org/2000/svg">
<path d="M87.8491 24.0883C89.7054 26.1722 91.0772 29.1594 88.7246 36.4119C88.4604 40.105 81.8631 49.7247 85.9774 50.7628C87.5211 50.3247 86.1297 49.1056 88.2907 46.7418C90.4517 44.378 95.8674 42.7064 99.4072 35.2726C102.239 29.3255 100.499 21.6817 99.2747 18.6031C97.8566 15.91 95.1189 13.5763 91.3612 14.8523C87.6034 16.1283 86.603 22.6896 87.8491 24.0883Z" stroke="black" stroke-width="1.27162"/>
<path d="M127.894 24.0883C129.75 26.1722 131.122 29.1594 128.769 36.4119C128.505 40.105 121.908 49.7247 126.022 50.7628C127.566 50.3247 126.174 49.1056 128.335 46.7418C130.496 44.378 135.912 42.7064 139.452 35.2726C142.284 29.3255 140.544 21.6817 139.319 18.6031C137.901 15.91 135.164 13.5763 131.406 14.8523C127.648 16.1283 126.648 22.6896 127.894 24.0883Z" stroke="black" stroke-width="1.27162"/>
<path d="M167.939 24.0883C169.795 26.1722 171.167 29.1594 168.814 36.4119C168.55 40.105 161.953 49.7247 166.067 50.7628C167.611 50.3247 166.219 49.1056 168.38 46.7418C170.541 44.378 175.957 42.7064 179.497 35.2726C182.329 29.3255 180.588 21.6817 179.364 18.6031C177.946 15.91 175.208 13.5763 171.451 14.8523C167.693 16.1283 166.693 22.6896 167.939 24.0883Z" stroke="black" stroke-width="1.27162"/>
<path d="M7.75951 24.2232C9.61589 26.307 10.9876 29.2942 8.63507 36.5467C8.37081 40.2398 1.7736 49.8596 5.88785 50.8977C7.43156 50.4595 6.04018 49.2404 8.20118 46.8766C10.3622 44.5129 15.7779 42.8413 19.3177 35.4074C22.1495 29.4603 20.4093 21.8165 19.1852 18.738C17.767 16.0448 15.0294 13.7112 11.2716 14.9872C7.51384 16.2631 6.51347 22.8244 7.75951 24.2232Z" fill="#FF220C" stroke="black" stroke-width="0.405299"/>
<path d="M47.6035 24.2232C49.4599 26.307 50.8316 29.2942 48.4791 36.5467C48.2148 40.2398 41.6176 49.8596 45.7318 50.8977C47.2756 50.4595 45.8842 49.2404 48.0452 46.8766C50.2062 44.5129 55.6219 42.8413 59.1617 35.4074C61.9935 29.4603 60.2533 21.8165 59.0292 18.738C57.611 16.0448 54.8734 13.7112 51.1156 14.9872C47.3578 16.2631 46.3575 22.8244 47.6035 24.2232Z" fill="#FF220C" stroke="black" stroke-width="0.405299"/>
<path d="M89.4545 3.51429C87.1009 6.61407 87.033 11.1136 88.0433 13.9093C89.4363 17.2121 86.7065 18.325 87.5666 19.7124C88.2339 19.8056 89.8227 18.2666 90.9161 17.2187C92.1698 16.017 95.7038 15.6672 95.4607 15.1452C94.537 13.162 91.1032 16.5413 89.3074 10.3538C88.3501 7.05515 91.5919 3.52374 92.5959 3.17926C93.1657 3.55676 93.1228 4.83234 95.0484 3.57512C96.974 2.31791 94.6599 1.64434 93.4459 1.39033C92.6123 1.27837 91.0039 1.47363 89.4545 3.51429Z" fill="#C3D74B" stroke="black" stroke-width="0.405299"/>
<path d="M129.499 3.51429C127.146 6.61407 127.078 11.1136 128.088 13.9093C129.481 17.2121 126.751 18.325 127.611 19.7124C128.279 19.8056 129.868 18.2666 130.961 17.2187C132.215 16.017 135.749 15.6672 135.506 15.1452C134.582 13.162 131.148 16.5413 129.352 10.3538C128.395 7.05515 131.637 3.52374 132.641 3.17926C133.211 3.55676 133.168 4.83234 135.093 3.57512C137.019 2.31791 134.705 1.64434 133.491 1.39033C132.657 1.27837 131.049 1.47363 129.499 3.51429Z" fill="#C3D74B" stroke="black" stroke-width="0.405299"/>
<path d="M169.544 3.51429C167.19 6.61407 167.123 11.1136 168.133 13.9093C169.526 17.2121 166.796 18.325 167.656 19.7124C168.323 19.8056 169.912 18.2666 171.006 17.2187C172.259 16.017 175.793 15.6672 175.55 15.1452C174.627 13.162 171.193 16.5413 169.397 10.3538C168.44 7.05515 171.681 3.52374 172.685 3.17926C173.255 3.55676 173.212 4.83234 175.138 3.57512C177.064 2.31791 174.749 1.64434 173.535 1.39033C172.702 1.27837 171.093 1.47363 169.544 3.51429Z" fill="#C3D74B" stroke="black" stroke-width="0.405299"/>
<path d="M9.365 3.51429C7.01142 6.61407 6.94351 11.1136 7.95381 13.9093C9.34686 17.2121 6.61705 18.325 7.47713 19.7124C8.14442 19.8056 9.73322 18.2666 10.8266 17.2187C12.0803 16.017 15.6143 15.6672 15.3712 15.1452C14.4476 13.162 11.0138 16.5413 9.21796 10.3538C8.26059 7.05515 11.5024 3.52374 12.5064 3.17926C13.0762 3.55676 13.0333 4.83234 14.9589 3.57512C16.8846 2.31791 14.5704 1.64434 13.3565 1.39033C12.5228 1.27837 10.9144 1.47363 9.365 3.51429Z" fill="#C3D74B" stroke="black" stroke-width="0.405299"/>
<path d="M49.209 3.51429C46.8554 6.61407 46.7875 11.1136 47.7978 13.9093C49.1909 17.2121 46.461 18.325 47.3211 19.7124C47.9884 19.8056 49.5772 18.2666 50.6706 17.2187C51.9243 16.017 55.4583 15.6672 55.2152 15.1452C54.2916 13.162 50.8578 16.5413 49.062 10.3538C48.1046 7.05515 51.3464 3.52374 52.3504 3.17926C52.9202 3.55676 52.8773 4.83234 54.8029 3.57512C56.7286 2.31791 54.4144 1.64434 53.2005 1.39033C52.3668 1.27837 50.7584 1.47363 49.209 3.51429Z" fill="#C3D74B" stroke="black" stroke-width="0.405299"/>
</svg>
