<svg width="184" height="52" viewBox="0 0 184 52" fill="none" xmlns="http://www.w3.org/2000/svg">
<path d="M7.75951 24.118C9.61589 26.2018 10.9876 29.189 8.63507 36.4416C8.37081 40.1347 1.7736 49.7544 5.88785 50.7925C7.43156 50.3544 6.04018 49.1353 8.20118 46.7715C10.3622 44.4077 15.7779 42.7361 19.3177 35.3022C22.1495 29.3552 20.4093 21.7113 19.1852 18.6328C17.767 15.9396 15.0294 13.606 11.2716 14.882C7.51384 16.158 6.51347 22.7193 7.75951 24.118Z" fill="#FF220C" stroke="black" stroke-width="0.405299"/>
<path d="M47.6035 24.118C49.4599 26.2018 50.8316 29.189 48.4791 36.4416C48.2148 40.1347 41.6176 49.7544 45.7318 50.7925C47.2756 50.3544 45.8842 49.1353 48.0452 46.7715C50.2062 44.4077 55.6219 42.7361 59.1617 35.3022C61.9935 29.3552 60.2533 21.7113 59.0292 18.6328C57.611 15.9396 54.8734 13.606 51.1156 14.882C47.3578 16.158 46.3575 22.7193 47.6035 24.118Z" fill="#FF220C" stroke="black" stroke-width="0.405299"/>
<path d="M87.4475 24.118C89.3039 26.2018 90.6756 29.189 88.3231 36.4416C88.0588 40.1347 81.4616 49.7544 85.5758 50.7925C87.1196 50.3544 85.7282 49.1353 87.8892 46.7715C90.0502 44.4077 95.4659 42.7361 99.0057 35.3022C101.837 29.3552 100.097 21.7113 98.8732 18.6328C97.455 15.9396 94.7174 13.606 90.9596 14.882C87.2018 16.158 86.2015 22.7193 87.4475 24.118Z" fill="#FF220C" stroke="black" stroke-width="0.405299"/>
<path d="M127.292 24.118C129.148 26.2018 130.52 29.189 128.167 36.4416C127.903 40.1347 121.306 49.7544 125.42 50.7925C126.964 50.3544 125.572 49.1353 127.733 46.7715C129.894 44.4077 135.31 42.7361 138.85 35.3022C141.682 29.3552 139.941 21.7113 138.717 18.6328C137.299 15.9396 134.561 13.606 130.804 14.882C127.046 16.158 126.046 22.7193 127.292 24.118Z" fill="#FF220C" stroke="black" stroke-width="0.405299"/>
<path d="M167.983 24.118C169.84 26.2018 171.211 29.189 168.859 36.4416C168.595 40.1347 161.997 49.7544 166.112 50.7925C167.655 50.3544 166.264 49.1353 168.425 46.7715C170.586 44.4077 176.002 42.7361 179.541 35.3022C182.373 29.3552 180.633 21.7113 179.409 18.6328C177.991 15.9396 175.253 13.606 171.495 14.882C167.738 16.158 166.737 22.7193 167.983 24.118Z" fill="#FF220C" stroke="black" stroke-width="0.405299"/>
<path d="M9.365 3.40908C7.01142 6.50886 6.94351 11.0083 7.95381 13.8041C9.34686 17.1069 6.61705 18.2198 7.47713 19.6072C8.14442 19.7004 9.73322 18.1614 10.8266 17.1135C12.0803 15.9118 15.6143 15.562 15.3712 15.04C14.4476 13.0568 11.0138 16.4361 9.21796 10.2486C8.26059 6.94995 11.5024 3.41853 12.5064 3.07405C13.0762 3.45155 13.0333 4.72713 14.9589 3.46991C16.8846 2.2127 14.5704 1.53913 13.3565 1.28512C12.5228 1.17316 10.9144 1.36842 9.365 3.40908Z" fill="#C3D74B" stroke="black" stroke-width="0.405299"/>
<path d="M49.209 3.40908C46.8554 6.50886 46.7875 11.0083 47.7978 13.8041C49.1909 17.1069 46.461 18.2198 47.3211 19.6072C47.9884 19.7004 49.5772 18.1614 50.6706 17.1135C51.9243 15.9118 55.4583 15.562 55.2152 15.04C54.2916 13.0568 50.8578 16.4361 49.062 10.2486C48.1046 6.94995 51.3464 3.41853 52.3504 3.07405C52.9202 3.45155 52.8773 4.72713 54.8029 3.46991C56.7286 2.2127 54.4144 1.53913 53.2005 1.28512C52.3668 1.17316 50.7584 1.36842 49.209 3.40908Z" fill="#C3D74B" stroke="black" stroke-width="0.405299"/>
<path d="M89.053 3.40908C86.6994 6.50886 86.6315 11.0083 87.6418 13.8041C89.0348 17.1069 86.305 18.2198 87.1651 19.6072C87.8324 19.7004 89.4212 18.1614 90.5146 17.1135C91.7683 15.9118 95.3023 15.562 95.0592 15.04C94.1356 13.0568 90.7018 16.4361 88.906 10.2486C87.9486 6.94995 91.1904 3.41853 92.1944 3.07405C92.7642 3.45155 92.7213 4.72713 94.6469 3.46991C96.5725 2.2127 94.2584 1.53913 93.0444 1.28512C92.2108 1.17316 90.6024 1.36842 89.053 3.40908Z" fill="#C3D74B" stroke="black" stroke-width="0.405299"/>
<path d="M128.897 3.40908C126.543 6.50886 126.475 11.0083 127.486 13.8041C128.879 17.1069 126.149 18.2198 127.009 19.6072C127.676 19.7004 129.265 18.1614 130.359 17.1135C131.612 15.9118 135.146 15.562 134.903 15.04C133.98 13.0568 130.546 16.4361 128.75 10.2486C127.793 6.94995 131.034 3.41853 132.038 3.07405C132.608 3.45155 132.565 4.72713 134.491 3.46991C136.417 2.2127 134.102 1.53913 132.888 1.28512C132.055 1.17316 130.446 1.36842 128.897 3.40908Z" fill="#C3D74B" stroke="black" stroke-width="0.405299"/>
<path d="M169.589 3.40908C167.235 6.50886 167.167 11.0083 168.178 13.8041C169.571 17.1069 166.841 18.2198 167.701 19.6072C168.368 19.7004 169.957 18.1614 171.05 17.1135C172.304 15.9118 175.838 15.562 175.595 15.04C174.671 13.0568 171.238 16.4361 169.442 10.2486C168.484 6.94995 171.726 3.41853 172.73 3.07405C173.3 3.45155 173.257 4.72713 175.183 3.46991C177.108 2.2127 174.794 1.53913 173.58 1.28512C172.747 1.17316 171.138 1.36842 169.589 3.40908Z" fill="#C3D74B" stroke="black" stroke-width="0.405299"/>
</svg>
