<svg width="185" height="52" viewBox="0 0 185 52" fill="none" xmlns="http://www.w3.org/2000/svg">
<path d="M167.939 24.1636C169.795 26.2474 171.167 29.2346 168.814 36.4871C168.55 40.1802 161.953 49.7999 166.067 50.8381C167.611 50.3999 166.219 49.1808 168.38 46.817C170.541 44.4533 175.957 42.7817 179.497 35.3478C182.329 29.4007 180.588 21.7569 179.364 18.6784C177.946 15.9852 175.208 13.6516 171.451 14.9275C167.693 16.2035 166.693 22.7648 167.939 24.1636Z" stroke="black" stroke-width="1.27162"/>
<path d="M7.75951 24.2984C9.61589 26.3823 10.9876 29.3694 8.63507 36.622C8.37081 40.3151 1.7736 49.9348 5.88785 50.9729C7.43156 50.5348 6.04018 49.3157 8.20118 46.9519C10.3622 44.5881 15.7779 42.9165 19.3177 35.4827C22.1495 29.5356 20.4093 21.8918 19.1852 18.8132C17.767 16.1201 15.0294 13.7864 11.2716 15.0624C7.51384 16.3384 6.51347 22.8997 7.75951 24.2984Z" fill="#FF220C" stroke="black" stroke-width="0.405299"/>
<path d="M47.6035 24.2984C49.4599 26.3823 50.8316 29.3694 48.4791 36.622C48.2148 40.3151 41.6176 49.9348 45.7318 50.9729C47.2756 50.5348 45.8842 49.3157 48.0452 46.9519C50.2062 44.5881 55.6219 42.9165 59.1617 35.4827C61.9935 29.5356 60.2533 21.8918 59.0292 18.8132C57.611 16.1201 54.8734 13.7864 51.1156 15.0624C47.3578 16.3384 46.3575 22.8997 47.6035 24.2984Z" fill="#FF220C" stroke="black" stroke-width="0.405299"/>
<path d="M87.4475 24.2984C89.3039 26.3823 90.6756 29.3694 88.3231 36.622C88.0588 40.3151 81.4616 49.9348 85.5758 50.9729C87.1196 50.5348 85.7282 49.3157 87.8892 46.9519C90.0502 44.5881 95.4659 42.9165 99.0057 35.4827C101.837 29.5356 100.097 21.8918 98.8732 18.8132C97.455 16.1201 94.7174 13.7864 90.9596 15.0624C87.2018 16.3384 86.2015 22.8997 87.4475 24.2984Z" fill="#FF220C" stroke="black" stroke-width="0.405299"/>
<path d="M127.292 24.2984C129.148 26.3823 130.52 29.3694 128.167 36.622C127.903 40.3151 121.306 49.9348 125.42 50.9729C126.964 50.5348 125.572 49.3157 127.733 46.9519C129.894 44.5881 135.31 42.9165 138.85 35.4827C141.682 29.5356 139.941 21.8918 138.717 18.8132C137.299 16.1201 134.561 13.7864 130.804 15.0624C127.046 16.3384 126.046 22.8997 127.292 24.2984Z" fill="#FF220C" stroke="black" stroke-width="0.405299"/>
<path d="M169.544 3.5895C167.19 6.68928 167.123 11.1888 168.133 13.9845C169.526 17.2873 166.796 18.4002 167.656 19.7877C168.323 19.8808 169.912 18.3418 171.006 17.2939C172.259 16.0923 175.793 15.7424 175.55 15.2205C174.627 13.2372 171.193 16.6165 169.397 10.429C168.44 7.13037 171.681 3.59895 172.685 3.25447C173.255 3.63197 173.212 4.90755 175.138 3.65033C177.064 2.39312 174.749 1.71955 173.535 1.46554C172.702 1.35358 171.093 1.54884 169.544 3.5895Z" fill="#C3D74B" stroke="black" stroke-width="0.405299"/>
<path d="M9.365 3.5895C7.01142 6.68928 6.94351 11.1888 7.95381 13.9845C9.34686 17.2873 6.61705 18.4002 7.47713 19.7877C8.14442 19.8808 9.73322 18.3418 10.8266 17.2939C12.0803 16.0923 15.6143 15.7424 15.3712 15.2205C14.4476 13.2372 11.0138 16.6165 9.21796 10.429C8.26059 7.13037 11.5024 3.59895 12.5064 3.25447C13.0762 3.63197 13.0333 4.90755 14.9589 3.65033C16.8846 2.39312 14.5704 1.71955 13.3565 1.46554C12.5228 1.35358 10.9144 1.54884 9.365 3.5895Z" fill="#C3D74B" stroke="black" stroke-width="0.405299"/>
<path d="M49.209 3.5895C46.8554 6.68928 46.7875 11.1888 47.7978 13.9845C49.1909 17.2873 46.461 18.4002 47.3211 19.7877C47.9884 19.8808 49.5772 18.3418 50.6706 17.2939C51.9243 16.0923 55.4583 15.7424 55.2152 15.2205C54.2916 13.2372 50.8578 16.6165 49.062 10.429C48.1046 7.13037 51.3464 3.59895 52.3504 3.25447C52.9202 3.63197 52.8773 4.90755 54.8029 3.65033C56.7286 2.39312 54.4144 1.71955 53.2005 1.46554C52.3668 1.35358 50.7584 1.54884 49.209 3.5895Z" fill="#C3D74B" stroke="black" stroke-width="0.405299"/>
<path d="M89.053 3.5895C86.6994 6.68928 86.6315 11.1888 87.6418 13.9845C89.0348 17.2873 86.305 18.4002 87.1651 19.7877C87.8324 19.8808 89.4212 18.3418 90.5146 17.2939C91.7683 16.0923 95.3023 15.7424 95.0592 15.2205C94.1356 13.2372 90.7018 16.6165 88.906 10.429C87.9486 7.13037 91.1904 3.59895 92.1944 3.25447C92.7642 3.63197 92.7213 4.90755 94.6469 3.65033C96.5725 2.39312 94.2584 1.71955 93.0444 1.46554C92.2108 1.35358 90.6024 1.54884 89.053 3.5895Z" fill="#C3D74B" stroke="black" stroke-width="0.405299"/>
<path d="M128.897 3.5895C126.543 6.68928 126.475 11.1888 127.486 13.9845C128.879 17.2873 126.149 18.4002 127.009 19.7877C127.676 19.8808 129.265 18.3418 130.359 17.2939C131.612 16.0923 135.146 15.7424 134.903 15.2205C133.98 13.2372 130.546 16.6165 128.75 10.429C127.793 7.13037 131.034 3.59895 132.038 3.25447C132.608 3.63197 132.565 4.90755 134.491 3.65033C136.417 2.39312 134.102 1.71955 132.888 1.46554C132.055 1.35358 130.446 1.54884 128.897 3.5895Z" fill="#C3D74B" stroke="black" stroke-width="0.405299"/>
</svg>
