<svg width="185" height="52" viewBox="0 0 185 52" fill="none" xmlns="http://www.w3.org/2000/svg">
<path d="M7.75951 24.0131C9.61589 26.0969 10.9876 29.0841 8.63507 36.3367C8.37081 40.0298 1.7736 49.6495 5.88785 50.6876C7.43156 50.2495 6.04018 49.0304 8.20118 46.6666C10.3622 44.3028 15.7779 42.6312 19.3177 35.1973C22.1495 29.2503 20.4093 21.6064 19.1852 18.5279C17.767 15.8347 15.0294 13.5011 11.2716 14.7771C7.51384 16.0531 6.51347 22.6144 7.75951 24.0131Z" stroke="black" stroke-width="1.27162"/>
<path d="M47.8043 24.0131C49.6606 26.0969 51.0324 29.0841 48.6798 36.3367C48.4156 40.0298 41.8183 49.6495 45.9326 50.6876C47.4763 50.2495 46.0849 49.0304 48.2459 46.6666C50.4069 44.3028 55.8226 42.6312 59.3624 35.1973C62.1942 29.2503 60.454 21.6064 59.2299 18.5279C57.8118 15.8347 55.0741 13.5011 51.3164 14.7771C47.5586 16.0531 46.5582 22.6144 47.8043 24.0131Z" stroke="black" stroke-width="1.27162"/>
<path d="M87.8491 24.0131C89.7054 26.0969 91.0772 29.0841 88.7246 36.3367C88.4604 40.0298 81.8631 49.6495 85.9774 50.6876C87.5211 50.2495 86.1297 49.0304 88.2907 46.6666C90.4517 44.3028 95.8674 42.6312 99.4072 35.1973C102.239 29.2503 100.499 21.6064 99.2747 18.5279C97.8566 15.8347 95.1189 13.5011 91.3612 14.7771C87.6034 16.0531 86.603 22.6144 87.8491 24.0131Z" stroke="black" stroke-width="1.27162"/>
<path d="M127.894 24.0131C129.75 26.0969 131.122 29.0841 128.769 36.3367C128.505 40.0298 121.908 49.6495 126.022 50.6876C127.566 50.2495 126.174 49.0304 128.335 46.6666C130.496 44.3028 135.912 42.6312 139.452 35.1973C142.284 29.2503 140.544 21.6064 139.319 18.5279C137.901 15.8347 135.164 13.5011 131.406 14.7771C127.648 16.0531 126.648 22.6144 127.894 24.0131Z" stroke="black" stroke-width="1.27162"/>
<path d="M167.939 24.0131C169.795 26.0969 171.167 29.0841 168.814 36.3367C168.55 40.0298 161.953 49.6495 166.067 50.6876C167.611 50.2495 166.219 49.0304 168.38 46.6666C170.541 44.3028 175.957 42.6312 179.497 35.1973C182.329 29.2503 180.588 21.6064 179.364 18.5279C177.946 15.8347 175.208 13.5011 171.451 14.7771C167.693 16.0531 166.693 22.6144 167.939 24.0131Z" stroke="black" stroke-width="1.27162"/>
<path d="M9.365 3.43905C7.01142 6.53883 6.94351 11.0383 7.95381 13.8341C9.34686 17.1369 6.61705 18.2498 7.47713 19.6372C8.14442 19.7304 9.73322 18.1914 10.8266 17.1434C12.0803 15.9418 15.6143 15.5919 15.3712 15.07C14.4476 13.0867 11.0138 16.4661 9.21796 10.2786C8.26059 6.97991 11.5024 3.4485 12.5064 3.10402C13.0762 3.48152 13.0333 4.7571 14.9589 3.49988C16.8846 2.24267 14.5704 1.5691 13.3565 1.31509C12.5228 1.20313 10.9144 1.39839 9.365 3.43905Z" fill="#C3D74B" stroke="black" stroke-width="0.405299"/>
<path d="M49.4098 3.43905C47.0562 6.53883 46.9883 11.0383 47.9986 13.8341C49.3917 17.1369 46.6618 18.2498 47.5219 19.6372C48.1892 19.7304 49.778 18.1914 50.8714 17.1434C52.1251 15.9418 55.6591 15.5919 55.416 15.07C54.4924 13.0867 51.0586 16.4661 49.2628 10.2786C48.3054 6.97991 51.5472 3.4485 52.5512 3.10402C53.121 3.48152 53.0781 4.7571 55.0037 3.49988C56.9294 2.24267 54.6152 1.5691 53.4013 1.31509C52.5676 1.20313 50.9592 1.39839 49.4098 3.43905Z" fill="#C3D74B" stroke="black" stroke-width="0.405299"/>
<path d="M89.4545 3.43905C87.1009 6.53883 87.033 11.0383 88.0433 13.8341C89.4363 17.1369 86.7065 18.2498 87.5666 19.6372C88.2339 19.7304 89.8227 18.1914 90.9161 17.1434C92.1698 15.9418 95.7038 15.5919 95.4607 15.07C94.537 13.0867 91.1032 16.4661 89.3074 10.2786C88.3501 6.97991 91.5919 3.4485 92.5959 3.10402C93.1657 3.48152 93.1228 4.7571 95.0484 3.49988C96.974 2.24267 94.6599 1.5691 93.4459 1.31509C92.6123 1.20313 91.0039 1.39839 89.4545 3.43905Z" fill="#C3D74B" stroke="black" stroke-width="0.405299"/>
<path d="M129.499 3.43905C127.146 6.53883 127.078 11.0383 128.088 13.8341C129.481 17.1369 126.751 18.2498 127.611 19.6372C128.279 19.7304 129.868 18.1914 130.961 17.1434C132.215 15.9418 135.749 15.5919 135.506 15.07C134.582 13.0867 131.148 16.4661 129.352 10.2786C128.395 6.97991 131.637 3.4485 132.641 3.10402C133.211 3.48152 133.168 4.7571 135.093 3.49988C137.019 2.24267 134.705 1.5691 133.491 1.31509C132.657 1.20313 131.049 1.39839 129.499 3.43905Z" fill="#C3D74B" stroke="black" stroke-width="0.405299"/>
<path d="M169.544 3.43905C167.19 6.53883 167.123 11.0383 168.133 13.8341C169.526 17.1369 166.796 18.2498 167.656 19.6372C168.323 19.7304 169.912 18.1914 171.006 17.1434C172.259 15.9418 175.793 15.5919 175.55 15.07C174.627 13.0867 171.193 16.4661 169.397 10.2786C168.44 6.97991 171.681 3.4485 172.685 3.10402C173.255 3.48152 173.212 4.7571 175.138 3.49988C177.064 2.24267 174.749 1.5691 173.535 1.31509C172.702 1.20313 171.093 1.39839 169.544 3.43905Z" fill="#C3D74B" stroke="black" stroke-width="0.405299"/>
</svg>
