<svg width="640" height="359" viewBox="0 0 640 359" fill="none" xmlns="http://www.w3.org/2000/svg">
<g filter="url(#filter0_d)">
<path d="M167.5 164.5L167.25 173C153.917 180.167 137.25 185.75 117.25 189.75C131.583 193.583 145.417 195.5 158.75 195.5H164C173.167 209 179.083 225.833 181.75 246H117C115.333 234.333 111.917 224.333 106.75 216C101.75 207.5 95.5833 201.75 88.25 198.75C88.0833 201.583 88 207.25 88 215.75C88 224.25 88.5 234.333 89.5 246H35C30.1667 221.833 27.75 199.417 27.75 178.75C27.75 157.917 28.9167 138.667 31.25 121H161.75C165.583 137.833 167.5 152.333 167.5 164.5ZM93.5 137.75C91.5 152.417 90 166.833 89 181C98.1667 179.667 105.667 176.417 111.5 171.25C108.333 160.083 102.333 148.917 93.5 137.75ZM219.264 245.25C204.43 226.25 197.014 206.75 197.014 186.75C197.014 166.75 205.347 149.833 222.014 136C238.68 122.167 260.014 115.25 286.014 115.25C299.847 115.25 313.597 117.333 327.264 121.5C339.264 136.667 345.264 152.917 345.264 170.25C345.264 192.083 336.347 211.083 318.514 227.25C300.68 243.417 279.097 251.5 253.764 251.5C242.93 251.5 231.43 249.417 219.264 245.25ZM257.264 137C251.43 147 248.514 158.75 248.514 172.25C248.514 185.75 251.43 198.25 257.264 209.75C263.264 221.083 271.43 229.25 281.764 234.25C289.597 224.25 293.514 212.667 293.514 199.5C293.514 186.333 290.264 174.083 283.764 162.75C277.43 151.417 268.597 142.833 257.264 137ZM612.967 244V246H554.967C554.3 236.5 552.883 226.667 550.717 216.5C540.383 227 528.717 236.833 515.717 246H457.467C456.3 239.167 455.717 230.167 455.717 219C455.717 207.667 457.383 196.333 460.717 185C472.717 181.5 484.217 175.583 495.217 167.25C506.383 158.917 514.467 149.917 519.467 140.25C514.967 133.25 510.217 126.833 505.217 121H588.217C604.717 156.833 612.967 197.833 612.967 244ZM546.217 198.25C541.883 183.417 536.217 169.417 529.217 156.25C521.383 179.25 516.883 201 515.717 221.5C527.717 215.333 537.883 207.583 546.217 198.25Z" fill="#FF220C"/>
</g>
<path d="M134.826 315.352C139.136 315.352 142.592 316.653 145.194 319.256C147.84 321.859 149.162 325.784 149.162 331.032V351H134.698V333.528C134.698 329.517 133.269 327.512 130.41 327.512C128.789 327.512 127.466 328.088 126.442 329.24C125.461 330.349 124.97 332.12 124.97 334.552V351H110.506V303.512H124.97V318.808C127.658 316.504 130.944 315.352 134.826 315.352ZM180.965 351.64C177.082 351.64 173.583 350.872 170.469 349.336C167.397 347.757 164.986 345.603 163.237 342.872C161.487 340.099 160.613 336.963 160.613 333.464C160.613 329.965 161.487 326.851 163.237 324.12C164.986 321.347 167.397 319.192 170.469 317.656C173.583 316.12 177.082 315.352 180.965 315.352C184.89 315.352 188.389 316.12 191.461 317.656C194.575 319.192 196.986 321.347 198.693 324.12C200.442 326.851 201.317 329.965 201.317 333.464C201.317 336.963 200.442 340.099 198.693 342.872C196.986 345.603 194.575 347.757 191.461 349.336C188.389 350.872 184.89 351.64 180.965 351.64ZM180.965 340.376C182.629 340.376 183.994 339.779 185.061 338.584C186.127 337.347 186.661 335.64 186.661 333.464C186.661 331.288 186.127 329.603 185.061 328.408C183.994 327.213 182.629 326.616 180.965 326.616C179.301 326.616 177.935 327.213 176.869 328.408C175.802 329.603 175.269 331.288 175.269 333.464C175.269 335.64 175.802 337.347 176.869 338.584C177.935 339.779 179.301 340.376 180.965 340.376ZM238.036 349.784C235.86 351.021 232.894 351.64 229.14 351.64C224.233 351.64 220.457 350.467 217.812 348.12C215.166 345.731 213.844 342.168 213.844 337.432V328.472H209.044V317.912H213.844V308.12H228.308V317.912H235.476V328.472H228.308V337.304C228.308 338.371 228.585 339.203 229.14 339.8C229.694 340.397 230.42 340.696 231.316 340.696C232.553 340.696 233.641 340.376 234.58 339.736L238.036 349.784ZM287.365 351.64C284.378 351.64 281.434 351.32 278.533 350.68C275.631 350.04 273.285 349.208 271.493 348.184L275.461 338.648C277.082 339.629 279.002 340.397 281.221 340.952C283.439 341.507 285.594 341.784 287.685 341.784C289.349 341.784 290.501 341.656 291.141 341.4C291.823 341.101 292.165 340.675 292.165 340.12C292.165 339.565 291.738 339.181 290.885 338.968C290.074 338.755 288.73 338.541 286.853 338.328C283.994 337.987 281.562 337.56 279.557 337.048C277.551 336.493 275.781 335.448 274.245 333.912C272.751 332.376 272.005 330.179 272.005 327.32C272.005 325.059 272.687 323.032 274.053 321.24C275.418 319.448 277.445 318.019 280.133 316.952C282.863 315.885 286.127 315.352 289.925 315.352C292.57 315.352 295.151 315.608 297.669 316.12C300.229 316.589 302.405 317.293 304.197 318.232L300.229 327.768C297.157 326.061 293.786 325.208 290.117 325.208C286.959 325.208 285.381 325.763 285.381 326.872C285.381 327.427 285.807 327.832 286.661 328.088C287.514 328.301 288.858 328.515 290.693 328.728C293.551 329.069 295.962 329.517 297.925 330.072C299.93 330.627 301.679 331.672 303.173 333.208C304.709 334.744 305.477 336.941 305.477 339.8C305.477 341.976 304.794 343.96 303.429 345.752C302.063 347.544 300.015 348.973 297.285 350.04C294.554 351.107 291.247 351.64 287.365 351.64ZM331.936 315.352C338.08 315.352 342.774 316.739 346.016 319.512C349.259 322.243 350.88 326.467 350.88 332.184V351H337.44V346.392C335.776 349.891 332.47 351.64 327.52 351.64C324.747 351.64 322.379 351.171 320.416 350.232C318.496 349.251 317.024 347.949 316 346.328C315.019 344.664 314.528 342.808 314.528 340.76C314.528 337.304 315.851 334.68 318.496 332.888C321.142 331.096 325.152 330.2 330.528 330.2H336.352C335.883 327.469 333.686 326.104 329.76 326.104C328.182 326.104 326.582 326.36 324.96 326.872C323.339 327.341 321.952 328.003 320.8 328.856L316.192 319.32C318.198 318.083 320.608 317.123 323.424 316.44C326.283 315.715 329.12 315.352 331.936 315.352ZM331.872 342.936C332.896 342.936 333.814 342.659 334.624 342.104C335.435 341.549 336.032 340.717 336.416 339.608V337.176H332.832C329.888 337.176 328.416 338.157 328.416 340.12C328.416 340.931 328.715 341.613 329.312 342.168C329.952 342.68 330.806 342.936 331.872 342.936ZM401.803 315.992V351H388.043V347.672C386.763 348.995 385.27 349.997 383.563 350.68C381.857 351.32 380.043 351.64 378.123 351.64C373.686 351.64 370.123 350.296 367.435 347.608C364.747 344.877 363.403 340.781 363.403 335.32V315.992H377.867V332.824C377.867 335.213 378.251 336.92 379.019 337.944C379.787 338.968 380.918 339.48 382.411 339.48C383.819 339.48 384.993 338.925 385.931 337.816C386.87 336.664 387.339 334.872 387.339 332.44V315.992H401.803ZM433.435 351.64C429.467 351.64 425.904 350.872 422.747 349.336C419.632 347.8 417.179 345.645 415.387 342.872C413.637 340.099 412.763 336.963 412.763 333.464C412.763 329.965 413.637 326.851 415.387 324.12C417.179 321.347 419.632 319.192 422.747 317.656C425.904 316.12 429.467 315.352 433.435 315.352C437.701 315.352 441.349 316.269 444.379 318.104C447.408 319.939 449.499 322.477 450.651 325.72L439.451 331.224C438.085 328.152 436.059 326.616 433.371 326.616C431.664 326.616 430.235 327.213 429.083 328.408C427.973 329.603 427.419 331.288 427.419 333.464C427.419 335.683 427.973 337.389 429.083 338.584C430.235 339.779 431.664 340.376 433.371 340.376C436.059 340.376 438.085 338.84 439.451 335.768L450.651 341.272C449.499 344.515 447.408 347.053 444.379 348.888C441.349 350.723 437.701 351.64 433.435 351.64ZM497.329 333.464C497.329 333.677 497.265 334.808 497.137 336.856H472.817C473.329 338.179 474.183 339.203 475.377 339.928C476.572 340.611 478.065 340.952 479.857 340.952C481.393 340.952 482.673 340.76 483.697 340.376C484.764 339.992 485.916 339.331 487.153 338.392L494.705 346.008C491.292 349.763 486.193 351.64 479.409 351.64C475.185 351.64 471.473 350.872 468.273 349.336C465.073 347.757 462.599 345.581 460.849 342.808C459.1 340.035 458.225 336.92 458.225 333.464C458.225 329.965 459.079 326.851 460.785 324.12C462.535 321.347 464.903 319.192 467.889 317.656C470.919 316.12 474.311 315.352 478.065 315.352C481.607 315.352 484.828 316.056 487.729 317.464C490.673 318.872 492.999 320.941 494.705 323.672C496.455 326.403 497.329 329.667 497.329 333.464ZM478.193 325.208C476.7 325.208 475.463 325.613 474.481 326.424C473.5 327.235 472.86 328.387 472.561 329.88H483.825C483.527 328.429 482.887 327.299 481.905 326.488C480.924 325.635 479.687 325.208 478.193 325.208Z" fill="white"/>
<path d="M145.194 319.256L143.78 320.67L143.786 320.676L143.792 320.682L145.194 319.256ZM149.162 351V353H151.162V351H149.162ZM134.698 351H132.698V353H134.698V351ZM126.442 329.24L124.947 327.911L124.944 327.915L126.442 329.24ZM124.97 351V353H126.97V351H124.97ZM110.506 351H108.506V353H110.506V351ZM110.506 303.512V301.512H108.506V303.512H110.506ZM124.97 303.512H126.97V301.512H124.97V303.512ZM124.97 318.808H122.97V323.156L126.272 320.327L124.97 318.808ZM134.826 317.352C138.703 317.352 141.616 318.506 143.78 320.67L146.608 317.842C143.567 314.8 139.568 313.352 134.826 313.352V317.352ZM143.792 320.682C145.92 322.775 147.162 326.095 147.162 331.032H151.162C151.162 325.473 149.759 320.942 146.597 317.83L143.792 320.682ZM147.162 331.032V351H151.162V331.032H147.162ZM149.162 349H134.698V353H149.162V349ZM136.698 351V333.528H132.698V351H136.698ZM136.698 333.528C136.698 331.346 136.32 329.35 135.255 327.855C134.101 326.236 132.367 325.512 130.41 325.512V329.512C131.312 329.512 131.722 329.791 131.998 330.177C132.362 330.687 132.698 331.7 132.698 333.528H136.698ZM130.41 325.512C128.251 325.512 126.373 326.308 124.947 327.911L127.937 330.569C128.56 329.868 129.327 329.512 130.41 329.512V325.512ZM124.944 327.915C123.487 329.562 122.97 331.925 122.97 334.552H126.97C126.97 332.315 127.435 331.137 127.94 330.565L124.944 327.915ZM122.97 334.552V351H126.97V334.552H122.97ZM124.97 349H110.506V353H124.97V349ZM112.506 351V303.512H108.506V351H112.506ZM110.506 305.512H124.97V301.512H110.506V305.512ZM122.97 303.512V318.808H126.97V303.512H122.97ZM126.272 320.327C128.561 318.364 131.371 317.352 134.826 317.352V313.352C130.516 313.352 126.755 314.644 123.669 317.289L126.272 320.327ZM170.469 349.336L169.555 351.115L169.569 351.122L169.584 351.13L170.469 349.336ZM163.237 342.872L161.545 343.939L161.553 343.951L163.237 342.872ZM163.237 324.12L164.921 325.199L164.928 325.187L163.237 324.12ZM170.469 317.656L169.584 315.862L169.574 315.867L170.469 317.656ZM191.461 317.656L190.566 319.445L190.576 319.45L191.461 317.656ZM198.693 324.12L196.989 325.168L196.999 325.184L197.009 325.199L198.693 324.12ZM198.693 342.872L197.001 341.805L196.997 341.812L198.693 342.872ZM191.461 349.336L192.355 351.125L192.365 351.12L191.461 349.336ZM185.061 338.584L186.553 339.916L186.564 339.903L186.576 339.89L185.061 338.584ZM176.869 338.584L175.354 339.89L175.365 339.903L175.377 339.916L176.869 338.584ZM180.965 349.64C177.352 349.64 174.162 348.927 171.353 347.542L169.584 351.13C173.005 352.817 176.812 353.64 180.965 353.64V349.64ZM171.383 347.557C168.604 346.129 166.467 344.207 164.921 341.793L161.553 343.951C163.505 346.998 166.19 349.386 169.555 351.115L171.383 347.557ZM164.928 341.805C163.394 339.373 162.613 336.611 162.613 333.464H158.613C158.613 337.314 159.581 340.825 161.545 343.939L164.928 341.805ZM162.613 333.464C162.613 330.316 163.394 327.582 164.921 325.199L161.553 323.041C159.581 326.119 158.613 329.614 158.613 333.464H162.613ZM164.928 325.187C166.473 322.738 168.602 320.826 171.363 319.445L169.574 315.867C166.192 317.558 163.499 319.956 161.545 323.053L164.928 325.187ZM171.353 319.45C174.162 318.065 177.352 317.352 180.965 317.352V313.352C176.812 313.352 173.005 314.175 169.584 315.862L171.353 319.45ZM180.965 317.352C184.624 317.352 187.809 318.066 190.566 319.445L192.355 315.867C188.968 314.174 185.156 313.352 180.965 313.352V317.352ZM190.576 319.45C193.377 320.831 195.493 322.737 196.989 325.168L200.396 323.072C198.479 319.956 195.774 317.553 192.345 315.862L190.576 319.45ZM197.009 325.199C198.535 327.582 199.317 330.316 199.317 333.464H203.317C203.317 329.614 202.349 326.119 200.377 323.041L197.009 325.199ZM199.317 333.464C199.317 336.611 198.535 339.373 197.001 341.805L200.384 343.939C202.349 340.825 203.317 337.314 203.317 333.464H199.317ZM196.997 341.812C195.499 344.208 193.375 346.124 190.557 347.552L192.365 351.12C195.776 349.391 198.473 346.998 200.389 343.932L196.997 341.812ZM190.566 347.547C187.809 348.926 184.624 349.64 180.965 349.64V353.64C185.156 353.64 188.968 352.818 192.355 351.125L190.566 347.547ZM180.965 342.376C183.173 342.376 185.09 341.554 186.553 339.916L183.569 337.252C182.898 338.003 182.084 338.376 180.965 338.376V342.376ZM186.576 339.89C188.046 338.184 188.661 335.958 188.661 333.464H184.661C184.661 335.322 184.208 336.51 183.546 337.278L186.576 339.89ZM188.661 333.464C188.661 330.974 188.048 328.751 186.553 327.076L183.569 329.74C184.207 330.454 184.661 331.602 184.661 333.464H188.661ZM186.553 327.076C185.09 325.438 183.173 324.616 180.965 324.616V328.616C182.084 328.616 182.898 328.989 183.569 329.74L186.553 327.076ZM180.965 324.616C178.756 324.616 176.839 325.438 175.377 327.076L178.361 329.74C179.031 328.989 179.845 328.616 180.965 328.616V324.616ZM175.377 327.076C173.881 328.751 173.269 330.974 173.269 333.464H177.269C177.269 331.602 177.723 330.454 178.361 329.74L175.377 327.076ZM173.269 333.464C173.269 335.958 173.883 338.184 175.354 339.89L178.384 337.278C177.721 336.51 177.269 335.322 177.269 333.464H173.269ZM175.377 339.916C176.839 341.554 178.756 342.376 180.965 342.376V338.376C179.845 338.376 179.031 338.003 178.361 337.252L175.377 339.916ZM238.036 349.784L239.024 351.523L240.467 350.702L239.927 349.134L238.036 349.784ZM217.812 348.12L216.471 349.604L216.478 349.61L216.485 349.616L217.812 348.12ZM213.844 328.472H215.844V326.472H213.844V328.472ZM209.044 328.472H207.044V330.472H209.044V328.472ZM209.044 317.912V315.912H207.044V317.912H209.044ZM213.844 317.912V319.912H215.844V317.912H213.844ZM213.844 308.12V306.12H211.844V308.12H213.844ZM228.308 308.12H230.308V306.12H228.308V308.12ZM228.308 317.912H226.308V319.912H228.308V317.912ZM235.476 317.912H237.476V315.912H235.476V317.912ZM235.476 328.472V330.472H237.476V328.472H235.476ZM228.308 328.472V326.472H226.308V328.472H228.308ZM229.14 339.8L227.674 341.161L227.674 341.161L229.14 339.8ZM234.58 339.736L236.471 339.086L235.619 336.607L233.453 338.084L234.58 339.736ZM237.047 348.045C235.286 349.047 232.708 349.64 229.14 349.64V353.64C233.081 353.64 236.433 352.996 239.024 351.523L237.047 348.045ZM229.14 349.64C224.533 349.64 221.298 348.539 219.139 346.624L216.485 349.616C219.616 352.394 223.934 353.64 229.14 353.64V349.64ZM219.152 346.636C217.053 344.739 215.844 341.798 215.844 337.432H211.844C211.844 342.538 213.28 346.722 216.471 349.604L219.152 346.636ZM215.844 337.432V328.472H211.844V337.432H215.844ZM213.844 326.472H209.044V330.472H213.844V326.472ZM211.044 328.472V317.912H207.044V328.472H211.044ZM209.044 319.912H213.844V315.912H209.044V319.912ZM215.844 317.912V308.12H211.844V317.912H215.844ZM213.844 310.12H228.308V306.12H213.844V310.12ZM226.308 308.12V317.912H230.308V308.12H226.308ZM228.308 319.912H235.476V315.912H228.308V319.912ZM233.476 317.912V328.472H237.476V317.912H233.476ZM235.476 326.472H228.308V330.472H235.476V326.472ZM226.308 328.472V337.304H230.308V328.472H226.308ZM226.308 337.304C226.308 338.715 226.681 340.091 227.674 341.161L230.605 338.439C230.49 338.314 230.308 338.026 230.308 337.304H226.308ZM227.674 341.161C228.647 342.209 229.925 342.696 231.316 342.696V338.696C230.915 338.696 230.742 338.586 230.605 338.439L227.674 341.161ZM231.316 342.696C232.918 342.696 234.406 342.275 235.706 341.388L233.453 338.084C232.876 338.477 232.189 338.696 231.316 338.696V342.696ZM232.688 340.386L236.144 350.434L239.927 349.134L236.471 339.086L232.688 340.386ZM278.533 350.68L278.102 352.633L278.533 350.68ZM271.493 348.184L269.646 347.416L268.968 349.045L270.5 349.92L271.493 348.184ZM275.461 338.648L276.496 336.937L274.507 335.733L273.614 337.88L275.461 338.648ZM281.221 340.952L281.706 339.012L281.706 339.012L281.221 340.952ZM291.141 341.4L291.884 343.257L291.913 343.245L291.942 343.232L291.141 341.4ZM290.885 338.968L290.376 340.902L290.388 340.905L290.4 340.908L290.885 338.968ZM286.853 338.328L286.616 340.314L286.627 340.315L286.853 338.328ZM279.557 337.048L279.024 338.976L279.043 338.981L279.062 338.986L279.557 337.048ZM274.245 333.912L272.811 335.306L272.821 335.316L272.831 335.326L274.245 333.912ZM274.053 321.24L272.462 320.028L272.462 320.028L274.053 321.24ZM280.133 316.952L279.405 315.089L279.395 315.093L280.133 316.952ZM297.669 316.12L297.27 318.08L297.289 318.084L297.308 318.087L297.669 316.12ZM304.197 318.232L306.043 319L306.747 317.31L305.125 316.46L304.197 318.232ZM300.229 327.768L299.257 329.516L301.215 330.604L302.075 328.536L300.229 327.768ZM286.661 328.088L286.086 330.004L286.131 330.017L286.176 330.028L286.661 328.088ZM290.693 328.728L290.93 326.742L290.924 326.741L290.693 328.728ZM297.925 330.072L297.381 331.997L297.392 332L297.925 330.072ZM303.173 333.208L301.739 334.602L301.749 334.612L301.759 334.622L303.173 333.208ZM303.429 345.752L305.02 346.964L305.02 346.964L303.429 345.752ZM297.285 350.04L298.012 351.903L298.012 351.903L297.285 350.04ZM287.365 349.64C284.522 349.64 281.723 349.336 278.964 348.727L278.102 352.633C281.145 353.304 284.234 353.64 287.365 353.64V349.64ZM278.964 348.727C276.181 348.113 274.043 347.338 272.485 346.448L270.5 349.92C272.526 351.078 275.082 351.967 278.102 352.633L278.964 348.727ZM273.339 348.952L277.307 339.416L273.614 337.88L269.646 347.416L273.339 348.952ZM274.425 340.359C276.249 341.463 278.362 342.299 280.736 342.892L281.706 339.012C279.642 338.496 277.916 337.796 276.496 336.937L274.425 340.359ZM280.736 342.892C283.098 343.483 285.416 343.784 287.685 343.784V339.784C285.772 339.784 283.781 339.53 281.706 339.012L280.736 342.892ZM287.685 343.784C289.343 343.784 290.848 343.671 291.884 343.257L290.398 339.543C290.153 339.641 289.355 339.784 287.685 339.784V343.784ZM291.942 343.232C293.054 342.746 294.165 341.751 294.165 340.12H290.165C290.165 340.05 290.176 339.957 290.212 339.855C290.248 339.752 290.298 339.668 290.347 339.607C290.439 339.492 290.486 339.503 290.339 339.568L291.942 343.232ZM294.165 340.12C294.165 339.254 293.801 338.486 293.183 337.929C292.631 337.433 291.96 337.175 291.37 337.028L290.4 340.908C290.663 340.974 290.632 341.015 290.507 340.903C290.432 340.835 290.337 340.724 290.264 340.564C290.19 340.402 290.165 340.245 290.165 340.12H294.165ZM291.394 337.034C290.432 336.781 288.963 336.555 287.079 336.341L286.627 340.315C288.497 340.528 289.716 340.729 290.376 340.902L291.394 337.034ZM287.09 336.342C284.287 336.007 281.947 335.594 280.052 335.11L279.062 338.986C281.178 339.526 283.701 339.966 286.616 340.314L287.09 336.342ZM280.09 335.12C278.433 334.662 276.962 333.801 275.659 332.498L272.831 335.326C274.6 337.095 276.67 338.325 279.024 338.976L280.09 335.12ZM275.679 332.518C274.657 331.466 274.005 329.837 274.005 327.32H270.005C270.005 330.52 270.846 333.286 272.811 335.306L275.679 332.518ZM274.005 327.32C274.005 325.495 274.545 323.894 275.644 322.452L272.462 320.028C270.83 322.17 270.005 324.623 270.005 327.32H274.005ZM275.644 322.452C276.734 321.02 278.426 319.781 280.87 318.811L279.395 315.093C276.463 316.256 274.102 317.876 272.462 320.028L275.644 322.452ZM280.86 318.815C283.302 317.861 286.306 317.352 289.925 317.352V313.352C285.948 313.352 282.425 313.909 279.405 315.089L280.86 318.815ZM289.925 317.352C292.44 317.352 294.888 317.595 297.27 318.08L298.067 314.16C295.415 313.621 292.7 313.352 289.925 313.352V317.352ZM297.308 318.087C299.724 318.53 301.698 319.181 303.269 320.004L305.125 316.46C303.112 315.406 300.734 314.649 298.029 314.153L297.308 318.087ZM302.35 317.464L298.382 327L302.075 328.536L306.043 319L302.35 317.464ZM301.2 326.02C297.818 324.141 294.11 323.208 290.117 323.208V327.208C293.462 327.208 296.496 327.982 299.257 329.516L301.2 326.02ZM290.117 323.208C288.476 323.208 287.017 323.345 285.902 323.737C285.335 323.936 284.719 324.248 284.226 324.767C283.689 325.333 283.381 326.064 283.381 326.872H287.381C287.381 327.126 287.27 327.371 287.128 327.521C287.029 327.624 287.005 327.589 287.228 327.511C287.691 327.348 288.601 327.208 290.117 327.208V323.208ZM283.381 326.872C283.381 327.734 283.74 328.488 284.323 329.042C284.851 329.543 285.5 329.828 286.086 330.004L287.235 326.172C287.114 326.136 287.047 326.106 287.019 326.091C286.991 326.077 287.021 326.088 287.078 326.142C287.139 326.2 287.223 326.3 287.288 326.448C287.355 326.598 287.381 326.747 287.381 326.872H283.381ZM286.176 330.028C287.162 330.275 288.613 330.5 290.462 330.715L290.924 326.741C289.103 326.53 287.867 326.328 287.146 326.148L286.176 330.028ZM290.456 330.714C293.249 331.047 295.55 331.479 297.381 331.997L298.469 328.147C296.374 327.555 293.854 327.091 290.93 326.742L290.456 330.714ZM297.392 332C299.044 332.457 300.485 333.313 301.739 334.602L304.607 331.814C302.874 330.031 300.816 328.797 298.458 328.144L297.392 332ZM301.759 334.622C302.812 335.676 303.477 337.298 303.477 339.8H307.477C307.477 336.585 306.605 333.812 304.587 331.794L301.759 334.622ZM303.477 339.8C303.477 341.522 302.948 343.083 301.838 344.54L305.02 346.964C306.64 344.837 307.477 342.43 307.477 339.8H303.477ZM301.838 344.54C300.753 345.964 299.047 347.205 296.557 348.177L298.012 351.903C300.984 350.742 303.374 349.124 305.02 346.964L301.838 344.54ZM296.557 348.177C294.12 349.129 291.075 349.64 287.365 349.64V353.64C291.42 353.64 294.988 353.084 298.012 351.903L296.557 348.177ZM346.016 319.512L344.716 321.032L344.722 321.037L344.728 321.042L346.016 319.512ZM350.88 351V353H352.88V351H350.88ZM337.44 351H335.44V353H337.44V351ZM337.44 346.392H339.44L335.634 345.533L337.44 346.392ZM320.416 350.232L319.506 352.013L319.53 352.025L319.553 352.036L320.416 350.232ZM316 346.328L314.278 347.344L314.293 347.37L314.309 347.396L316 346.328ZM318.496 332.888L317.375 331.232L317.375 331.232L318.496 332.888ZM336.352 330.2V332.2H338.725L338.323 329.861L336.352 330.2ZM324.96 326.872L325.516 328.793L325.54 328.786L325.563 328.779L324.96 326.872ZM320.8 328.856L318.999 329.726L320.05 331.901L321.991 330.463L320.8 328.856ZM316.192 319.32L315.142 317.618L313.606 318.565L314.391 320.19L316.192 319.32ZM323.424 316.44L323.895 318.384L323.906 318.381L323.916 318.379L323.424 316.44ZM334.624 342.104L333.495 340.453L333.495 340.453L334.624 342.104ZM336.416 339.608L338.306 340.262L338.416 339.944V339.608H336.416ZM336.416 337.176H338.416V335.176H336.416V337.176ZM329.312 342.168L327.951 343.634L328.005 343.684L328.063 343.73L329.312 342.168ZM331.936 317.352C337.809 317.352 341.967 318.68 344.716 321.032L347.316 317.992C343.581 314.797 338.351 313.352 331.936 313.352V317.352ZM344.728 321.042C347.376 323.272 348.88 326.839 348.88 332.184H352.88C352.88 326.094 351.142 321.214 347.305 317.982L344.728 321.042ZM348.88 332.184V351H352.88V332.184H348.88ZM350.88 349H337.44V353H350.88V349ZM339.44 351V346.392H335.44V351H339.44ZM335.634 345.533C334.399 348.129 331.955 349.64 327.52 349.64V353.64C332.985 353.64 337.153 351.652 339.246 347.251L335.634 345.533ZM327.52 349.64C324.966 349.64 322.909 349.207 321.279 348.428L319.553 352.036C321.849 353.134 324.528 353.64 327.52 353.64V349.64ZM321.326 348.451C319.685 347.612 318.501 346.542 317.691 345.26L314.309 347.396C315.548 349.357 317.307 350.889 319.506 352.013L321.326 348.451ZM317.723 345.312C316.934 343.975 316.528 342.473 316.528 340.76H312.528C312.528 343.143 313.104 345.353 314.278 347.344L317.723 345.312ZM316.528 340.76C316.528 337.903 317.573 335.929 319.618 334.544L317.375 331.232C314.129 333.431 312.528 336.705 312.528 340.76H316.528ZM319.618 334.544C321.775 333.082 325.307 332.2 330.528 332.2V328.2C324.997 328.2 320.508 329.11 317.375 331.232L319.618 334.544ZM330.528 332.2H336.352V328.2H330.528V332.2ZM338.323 329.861C338 327.978 337.03 326.437 335.408 325.429C333.869 324.473 331.917 324.104 329.76 324.104V328.104C331.529 328.104 332.639 328.418 333.297 328.827C333.872 329.184 334.236 329.692 334.381 330.539L338.323 329.861ZM329.76 324.104C327.962 324.104 326.159 324.396 324.358 324.965L325.563 328.779C327.004 328.324 328.401 328.104 329.76 328.104V324.104ZM324.404 324.951C322.594 325.475 320.983 326.231 319.61 327.249L321.991 330.463C322.921 329.774 324.084 329.208 325.516 328.793L324.404 324.951ZM322.601 327.986L317.993 318.45L314.391 320.19L318.999 329.726L322.601 327.986ZM317.242 321.022C319.033 319.917 321.239 319.028 323.895 318.384L322.953 314.496C319.978 315.218 317.362 316.248 315.142 317.618L317.242 321.022ZM323.916 318.379C326.622 317.692 329.294 317.352 331.936 317.352V313.352C328.947 313.352 325.944 313.737 322.932 314.501L323.916 318.379ZM331.872 344.936C333.281 344.936 334.596 344.547 335.754 343.755L333.495 340.453C333.032 340.77 332.511 340.936 331.872 340.936V344.936ZM335.754 343.755C336.983 342.913 337.81 341.695 338.306 340.262L334.526 338.954C334.254 339.739 333.887 340.185 333.495 340.453L335.754 343.755ZM338.416 339.608V337.176H334.416V339.608H338.416ZM336.416 335.176H332.832V339.176H336.416V335.176ZM332.832 335.176C331.201 335.176 329.628 335.436 328.411 336.248C327.05 337.155 326.416 338.556 326.416 340.12H330.416C330.416 339.881 330.46 339.768 330.481 339.726C330.498 339.693 330.529 339.643 330.63 339.576C330.884 339.406 331.519 339.176 332.832 339.176V335.176ZM326.416 340.12C326.416 341.49 326.949 342.703 327.951 343.634L330.673 340.702C330.481 340.524 330.416 340.371 330.416 340.12H326.416ZM328.063 343.73C329.152 344.601 330.49 344.936 331.872 344.936V340.936C331.122 340.936 330.752 340.759 330.562 340.606L328.063 343.73ZM401.803 315.992H403.803V313.992H401.803V315.992ZM401.803 351V353H403.803V351H401.803ZM388.043 351H386.043V353H388.043V351ZM388.043 347.672H390.043V342.729L386.606 346.281L388.043 347.672ZM383.563 350.68L384.265 352.553L384.286 352.545L384.306 352.537L383.563 350.68ZM367.435 347.608L366.01 349.011L366.015 349.017L366.021 349.022L367.435 347.608ZM363.403 315.992V313.992H361.403V315.992H363.403ZM377.867 315.992H379.867V313.992H377.867V315.992ZM379.019 337.944L380.619 336.744L380.619 336.744L379.019 337.944ZM385.931 337.816L387.458 339.108L387.47 339.094L387.482 339.079L385.931 337.816ZM387.339 315.992V313.992H385.339V315.992H387.339ZM399.803 315.992V351H403.803V315.992H399.803ZM401.803 349H388.043V353H401.803V349ZM390.043 351V347.672H386.043V351H390.043ZM386.606 346.281C385.522 347.402 384.265 348.245 382.82 348.823L384.306 352.537C386.275 351.749 388.005 350.588 389.48 349.063L386.606 346.281ZM382.861 348.807C381.391 349.359 379.816 349.64 378.123 349.64V353.64C380.27 353.64 382.322 353.281 384.265 352.553L382.861 348.807ZM378.123 349.64C374.121 349.64 371.1 348.444 368.849 346.194L366.021 349.022C369.147 352.148 373.251 353.64 378.123 353.64V349.64ZM368.861 346.205C366.673 343.983 365.403 340.481 365.403 335.32H361.403C361.403 341.082 362.821 345.772 366.01 349.011L368.861 346.205ZM365.403 335.32V315.992H361.403V335.32H365.403ZM363.403 317.992H377.867V313.992H363.403V317.992ZM375.867 315.992V332.824H379.867V315.992H375.867ZM375.867 332.824C375.867 335.322 376.248 337.582 377.419 339.144L380.619 336.744C380.254 336.258 379.867 335.105 379.867 332.824H375.867ZM377.419 339.144C378.631 340.76 380.407 341.48 382.411 341.48V337.48C381.428 337.48 380.943 337.176 380.619 336.744L377.419 339.144ZM382.411 341.48C384.429 341.48 386.153 340.65 387.458 339.108L384.404 336.524C383.832 337.201 383.21 337.48 382.411 337.48V341.48ZM387.482 339.079C388.846 337.405 389.339 335.061 389.339 332.44H385.339C385.339 334.683 384.894 335.923 384.381 336.553L387.482 339.079ZM389.339 332.44V315.992H385.339V332.44H389.339ZM387.339 317.992H401.803V313.992H387.339V317.992ZM422.747 349.336L421.862 351.13L421.872 351.134L422.747 349.336ZM415.387 342.872L413.695 343.939L413.701 343.948L413.707 343.957L415.387 342.872ZM415.387 324.12L413.707 323.035L413.703 323.041L415.387 324.12ZM422.747 317.656L421.872 315.858L421.862 315.862L422.747 317.656ZM444.379 318.104L443.343 319.815L443.343 319.815L444.379 318.104ZM450.651 325.72L451.533 327.515L453.132 326.729L452.535 325.05L450.651 325.72ZM439.451 331.224L437.623 332.036L438.467 333.936L440.333 333.019L439.451 331.224ZM429.083 328.408L427.643 327.02L427.63 327.033L427.617 327.047L429.083 328.408ZM429.083 338.584L427.617 339.945L427.63 339.959L427.643 339.972L429.083 338.584ZM439.451 335.768L440.333 333.973L438.467 333.056L437.623 334.956L439.451 335.768ZM450.651 341.272L452.535 341.942L453.132 340.263L451.533 339.477L450.651 341.272ZM444.379 348.888L445.415 350.599L445.415 350.599L444.379 348.888ZM433.435 349.64C429.73 349.64 426.473 348.925 423.622 347.538L421.872 351.134C425.335 352.819 429.203 353.64 433.435 353.64V349.64ZM423.631 347.542C420.823 346.158 418.652 344.24 417.067 341.787L413.707 343.957C415.705 347.05 418.441 349.442 421.862 351.13L423.631 347.542ZM417.078 341.805C415.544 339.373 414.763 336.611 414.763 333.464H410.763C410.763 337.314 411.731 340.825 413.695 343.939L417.078 341.805ZM414.763 333.464C414.763 330.316 415.544 327.582 417.071 325.199L413.703 323.041C411.731 326.119 410.763 329.614 410.763 333.464H414.763ZM417.067 325.205C418.652 322.752 420.823 320.834 423.631 319.45L421.862 315.862C418.441 317.55 415.705 319.942 413.707 323.035L417.067 325.205ZM423.622 319.454C426.473 318.067 429.73 317.352 433.435 317.352V313.352C429.203 313.352 425.335 314.173 421.872 315.858L423.622 319.454ZM433.435 317.352C437.411 317.352 440.684 318.205 443.343 319.815L445.415 316.393C442.014 314.334 437.992 313.352 433.435 313.352V317.352ZM443.343 319.815C445.99 321.418 447.773 323.595 448.766 326.39L452.535 325.05C451.224 321.36 448.826 318.459 445.415 316.393L443.343 319.815ZM449.769 323.925L438.569 329.429L440.333 333.019L451.533 327.515L449.769 323.925ZM441.278 330.412C440.501 328.663 439.47 327.201 438.115 326.174C436.733 325.127 435.124 324.616 433.371 324.616V328.616C434.305 328.616 435.054 328.873 435.699 329.362C436.37 329.871 437.035 330.713 437.623 332.036L441.278 330.412ZM433.371 324.616C431.138 324.616 429.184 325.422 427.643 327.02L430.522 329.796C431.286 329.005 432.19 328.616 433.371 328.616V324.616ZM427.617 327.047C426.063 328.721 425.419 330.956 425.419 333.464H429.419C429.419 331.62 429.884 330.484 430.548 329.769L427.617 327.047ZM425.419 333.464C425.419 336.003 426.056 338.264 427.617 339.945L430.548 337.223C429.89 336.515 429.419 335.363 429.419 333.464H425.419ZM427.643 339.972C429.184 341.57 431.138 342.376 433.371 342.376V338.376C432.19 338.376 431.286 337.987 430.522 337.196L427.643 339.972ZM433.371 342.376C435.124 342.376 436.733 341.865 438.115 340.818C439.47 339.791 440.501 338.329 441.278 336.58L437.623 334.956C437.035 336.279 436.37 337.121 435.699 337.63C435.054 338.119 434.305 338.376 433.371 338.376V342.376ZM438.569 337.563L449.769 343.067L451.533 339.477L440.333 333.973L438.569 337.563ZM448.766 340.602C447.773 343.397 445.99 345.574 443.343 347.177L445.415 350.599C448.826 348.533 451.224 345.632 452.535 341.942L448.766 340.602ZM443.343 347.177C440.684 348.787 437.411 349.64 433.435 349.64V353.64C437.992 353.64 442.014 352.658 445.415 350.599L443.343 347.177ZM497.137 336.856V338.856H499.016L499.133 336.981L497.137 336.856ZM472.817 336.856V334.856H469.898L470.952 337.578L472.817 336.856ZM475.377 339.928L474.339 341.638L474.362 341.651L474.385 341.664L475.377 339.928ZM483.697 340.376L483.02 338.494L483.007 338.499L482.995 338.503L483.697 340.376ZM487.153 338.392L488.573 336.984L487.34 335.74L485.944 336.799L487.153 338.392ZM494.705 346.008L496.185 347.353L497.463 345.948L496.125 344.6L494.705 346.008ZM468.273 349.336L467.388 351.13L467.398 351.134L467.408 351.139L468.273 349.336ZM460.849 342.808L462.541 341.741L460.849 342.808ZM460.785 324.12L459.094 323.053L459.089 323.06L460.785 324.12ZM467.889 317.656L466.985 315.872L466.975 315.877L467.889 317.656ZM487.729 317.464L486.856 319.263L486.866 319.268L487.729 317.464ZM494.705 323.672L493.009 324.732L493.015 324.741L493.021 324.751L494.705 323.672ZM474.481 326.424L475.755 327.966L475.755 327.966L474.481 326.424ZM472.561 329.88L470.6 329.488L470.122 331.88H472.561V329.88ZM483.825 329.88V331.88H486.279L485.784 329.477L483.825 329.88ZM481.905 326.488L480.593 327.997L480.612 328.014L480.631 328.03L481.905 326.488ZM495.329 333.464C495.329 333.461 495.328 333.523 495.32 333.701C495.312 333.86 495.3 334.079 495.284 334.359C495.253 334.918 495.205 335.709 495.141 336.731L499.133 336.981C499.258 334.986 499.329 333.759 499.329 333.464H495.329ZM497.137 334.856H472.817V338.856H497.137V334.856ZM470.952 337.578C471.621 339.305 472.762 340.68 474.339 341.638L476.415 338.218C475.604 337.726 475.038 337.052 474.682 336.134L470.952 337.578ZM474.385 341.664C475.96 342.564 477.82 342.952 479.857 342.952V338.952C478.311 338.952 477.184 338.657 476.37 338.192L474.385 341.664ZM479.857 342.952C481.543 342.952 483.08 342.743 484.4 342.249L482.995 338.503C482.266 338.777 481.243 338.952 479.857 338.952V342.952ZM484.375 342.258C485.688 341.785 487.019 341.005 488.362 339.985L485.944 336.799C484.813 337.657 483.84 338.199 483.02 338.494L484.375 342.258ZM485.733 339.8L493.285 347.416L496.125 344.6L488.573 336.984L485.733 339.8ZM493.225 344.663C490.307 347.873 485.829 349.64 479.409 349.64V353.64C486.558 353.64 492.277 351.652 496.185 347.353L493.225 344.663ZM479.409 349.64C475.429 349.64 472.022 348.917 469.139 347.533L467.408 351.139C470.924 352.827 474.942 353.64 479.409 353.64V349.64ZM469.158 347.542C466.259 346.112 464.076 344.175 462.541 341.741L459.158 343.875C461.121 346.988 463.888 349.403 467.388 351.13L469.158 347.542ZM462.541 341.741C461.004 339.305 460.225 336.564 460.225 333.464H456.225C456.225 337.276 457.196 340.765 459.158 343.875L462.541 341.741ZM460.225 333.464C460.225 330.307 460.99 327.565 462.481 325.18L459.089 323.06C457.167 326.136 456.225 329.624 456.225 333.464H460.225ZM462.477 325.187C464.031 322.724 466.127 320.811 468.804 319.435L466.975 315.877C463.678 317.573 461.039 319.97 459.094 323.053L462.477 325.187ZM468.794 319.44C471.514 318.06 474.591 317.352 478.065 317.352V313.352C474.03 313.352 470.323 314.18 466.985 315.872L468.794 319.44ZM478.065 317.352C481.334 317.352 484.253 318 486.856 319.263L488.602 315.665C485.403 314.112 481.879 313.352 478.065 313.352V317.352ZM486.866 319.268C489.472 320.515 491.507 322.328 493.009 324.732L496.401 322.612C494.49 319.555 491.874 317.229 488.592 315.66L486.866 319.268ZM493.021 324.751C494.531 327.108 495.329 329.983 495.329 333.464H499.329C499.329 329.351 498.378 325.698 496.389 322.593L493.021 324.751ZM478.193 323.208C476.319 323.208 474.607 323.726 473.207 324.882L475.755 327.966C476.318 327.501 477.08 327.208 478.193 327.208V323.208ZM473.207 324.882C471.805 326.04 470.971 327.636 470.6 329.488L474.522 330.272C474.749 329.138 475.194 328.429 475.755 327.966L473.207 324.882ZM472.561 331.88H483.825V327.88H472.561V331.88ZM485.784 329.477C485.409 327.656 484.568 326.093 483.179 324.946L480.631 328.03C481.206 328.504 481.644 329.203 481.866 330.283L485.784 329.477ZM483.218 324.979C481.819 323.762 480.093 323.208 478.193 323.208V327.208C479.28 327.208 480.029 327.507 480.593 327.997L483.218 324.979Z" fill="black"/>
<path d="M361.289 140.264C370.015 155.078 386.5 191.5 357.5 226.5C328.5 261.5 316.12 247.5 305.62 261.5C296.08 274.22 327.62 273 327.62 273C327.62 273 389.897 263.914 417.306 221.398C439.232 187.385 436.425 138.197 432.281 117.855C426.655 99.7057 413.09 82.4453 390.24 86.5397C367.39 90.6341 355.433 130.32 361.289 140.264Z" fill="#FF220C" stroke="black" stroke-width="6"/>
<path d="M390.09 13.4293C373.606 30.2655 368.966 58.1089 372.146 76.4797C377.052 98.385 360.277 102.513 363.921 111.994C367.677 113.251 378.282 105.319 385.569 99.9301C393.925 93.7508 414.612 95.1738 413.705 91.6889C410.257 78.4466 387.287 95.9185 382.785 55.7085C380.385 34.272 402.392 15.6613 408.501 14.5453C411.427 17.4665 409.975 25.3359 422.254 19.4949C434.533 13.6538 421.839 7.12227 415.086 4.31209C410.39 2.76985 400.941 2.34569 390.09 13.4293Z" fill="#C3D74B" stroke="black" stroke-width="6"/>
<g style="mix-blend-mode:hard-light">
<path d="M415 200C424.258 150.877 415 120 392.302 100.49C396.945 96.1562 411 99 414.5 94.5C425.5 104.5 439.649 126.576 427.5 190.5C421.862 220.167 395.277 244 384 250C390.302 241.333 410.006 226.5 415 200Z" fill="white" fill-opacity="0.35"/>
</g>
<g style="mix-blend-mode:hard-light">
<path d="M377.5 148C401.5 175.5 378 213.5 359 229C385.5 198 375.162 163.156 371.5 154C367.5 144 358.685 137.963 363.5 124C368.5 109.5 362.5 118.5 375.5 111C362.5 120.5 366.254 135.114 377.5 148Z" fill="white" fill-opacity="0.35"/>
</g>
<path d="M377.5 51.6562C376 62.1562 378 69.1562 380.999 77.1562C382.999 81.3229 388.198 90.4562 392.999 93.6562L410.499 91.1562C409.499 87.1562 401.499 90.6562 390.499 79.6562C383.499 73.6562 373.499 53.6562 385.499 33.1562C380.999 37.6562 378.666 43.4929 377.5 51.6562Z" fill="#E5EDB3"/>
<defs>
<filter id="filter0_d" x="13.75" y="115.25" width="599.217" height="150.25" filterUnits="userSpaceOnUse" color-interpolation-filters="sRGB">
<feFlood flood-opacity="0" result="BackgroundImageFix"/>
<feColorMatrix in="SourceAlpha" type="matrix" values="0 0 0 0 0 0 0 0 0 0 0 0 0 0 0 0 0 0 127 0"/>
<feOffset dx="-10" dy="10"/>
<feGaussianBlur stdDeviation="2"/>
<feColorMatrix type="matrix" values="0 0 0 0 0 0 0 0 0 0 0 0 0 0 0 0 0 0 0.8 0"/>
<feBlend mode="normal" in2="BackgroundImageFix" result="effect1_dropShadow"/>
<feBlend mode="normal" in="SourceGraphic" in2="effect1_dropShadow" result="shape"/>
</filter>
</defs>
</svg>
