<svg width="207" height="98" viewBox="0 0 207 98" fill="none" xmlns="http://www.w3.org/2000/svg">
<g filter="url(#filter0_d)">
<path d="M51.2556 48.3049L51.1732 51.1067C46.7783 53.469 41.2846 55.3093 34.6923 56.6278C39.4168 57.8913 43.9765 58.5231 48.3714 58.5231H50.1019C53.1234 62.9729 55.0736 68.5215 55.9526 75.1688H34.6099C34.0605 71.3233 32.9343 68.0271 31.2313 65.2803C29.5832 62.4785 27.5506 60.5832 25.1334 59.5943C25.0784 60.5283 25.051 62.3961 25.051 65.1979C25.051 67.9996 25.2158 71.3233 25.5454 75.1688H7.58121C5.98806 67.203 5.19148 59.8141 5.19148 53.002C5.19148 46.135 5.57604 39.7898 6.34514 33.9666H49.3603C50.6238 39.5151 51.2556 44.2946 51.2556 48.3049ZM26.8639 39.4877C26.2046 44.3221 25.7102 49.074 25.3806 53.7436C28.4021 53.3041 30.8742 52.2329 32.797 50.5299C31.7532 46.8491 29.7755 43.1684 26.8639 39.4877ZM68.3178 74.9216C63.4285 68.6588 60.9838 62.2313 60.9838 55.6389C60.9838 49.0466 63.7306 43.4705 69.2243 38.9108C74.7179 34.3511 81.7497 32.0713 90.3198 32.0713C94.8795 32.0713 99.4118 32.758 103.917 34.1314C107.872 39.1306 109.85 44.4869 109.85 50.2002C109.85 57.3969 106.911 63.6596 101.032 68.9885C95.1542 74.3173 88.0399 76.9817 79.6896 76.9817C76.1188 76.9817 72.3282 76.295 68.3178 74.9216ZM80.8433 39.2404C78.9205 42.5366 77.9591 46.4096 77.9591 50.8595C77.9591 55.3093 78.9205 59.4295 80.8433 63.2201C82.821 66.9558 85.5129 69.6477 88.9189 71.2958C91.5009 67.9996 92.7919 64.1815 92.7919 59.8416C92.7919 55.5016 91.7207 51.4638 89.5782 47.7281C87.4906 43.9924 84.5789 41.1632 80.8433 39.2404ZM198.089 74.5096V75.1688H178.972C178.752 72.0374 178.285 68.7962 177.571 65.4451C174.165 68.9061 170.319 72.1473 166.034 75.1688H146.834C146.449 72.9164 146.257 69.9498 146.257 66.2691C146.257 62.5334 146.806 58.7978 147.905 55.0621C151.86 53.9084 155.651 51.9582 159.277 49.2114C162.958 46.4646 165.622 43.498 167.27 40.3117C165.787 38.0044 164.221 35.8893 162.573 33.9666H189.931C195.37 45.7779 198.089 59.2922 198.089 74.5096ZM176.087 59.4295C174.659 54.5402 172.791 49.9256 170.484 45.5856C167.902 53.1668 166.419 60.336 166.034 67.0932C169.989 65.0605 173.341 62.506 176.087 59.4295Z" fill="#FF220C"/>
</g>
<path d="M116.132 46.9038C119.008 51.787 124.442 63.7922 114.883 75.3288C105.324 86.8655 101.244 82.2509 97.7825 86.8655C94.6379 91.0583 105.034 90.6561 105.034 90.6561C105.034 90.6561 125.562 87.6611 134.596 73.647C141.823 62.4357 140.898 46.2226 139.532 39.5174C137.678 33.5351 133.206 27.8458 125.675 29.1954C118.143 30.545 114.201 43.6261 116.132 46.9038Z" fill="#FF220C" stroke="black" stroke-width="1.97771"/>
<path d="M125.625 5.09693C120.192 10.6464 118.662 19.8241 119.711 25.8794C121.328 33.0998 115.798 34.4605 117 37.5857C118.237 37.9999 121.733 35.3855 124.135 33.6091C126.889 31.5723 133.708 32.0414 133.409 30.8927C132.272 26.5278 124.701 32.2868 123.217 19.0329C122.426 11.967 129.68 5.83263 131.694 5.46478C132.658 6.42766 132.18 9.02154 136.227 7.09624C140.274 5.17093 136.09 3.01801 133.864 2.09173C132.316 1.58337 129.202 1.44356 125.625 5.09693Z" fill="#C3D74B" stroke="black" stroke-width="1.97771"/>
<g style="mix-blend-mode:hard-light">
<path d="M133.836 66.594C136.888 50.4023 133.836 40.2245 126.354 33.7935C127.885 32.3652 132.517 33.3026 133.671 31.8193C137.297 35.1155 141.961 42.3921 137.956 63.4626C136.098 73.2412 127.335 81.0971 123.618 83.0748C125.695 80.2182 132.19 75.3288 133.836 66.594Z" fill="white" fill-opacity="0.35"/>
</g>
<g style="mix-blend-mode:hard-light">
<path d="M121.475 49.4538C129.386 58.5183 121.64 71.0438 115.377 76.1529C124.112 65.9347 120.705 54.4495 119.498 51.4315C118.179 48.1354 115.274 46.1454 116.861 41.543C118.509 36.7635 116.531 39.7301 120.816 37.258C116.531 40.3893 117.769 45.2065 121.475 49.4538Z" fill="white" fill-opacity="0.35"/>
</g>
<path d="M121.475 17.6972C120.981 21.1582 121.64 23.4655 122.629 26.1025C123.288 27.4759 125.002 30.4864 126.584 31.5412L132.352 30.7171C132.023 29.3986 129.386 30.5523 125.76 26.9265C123.453 24.9488 120.156 18.3564 124.112 11.5993C122.629 13.0826 121.86 15.0064 121.475 17.6972Z" fill="#E5EDB3"/>
<defs>
<filter id="filter0_d" x="1.19147" y="32.0713" width="196.898" height="48.9104" filterUnits="userSpaceOnUse" color-interpolation-filters="sRGB">
<feFlood flood-opacity="0" result="BackgroundImageFix"/>
<feColorMatrix in="SourceAlpha" type="matrix" values="0 0 0 0 0 0 0 0 0 0 0 0 0 0 0 0 0 0 127 0"/>
<feOffset dx="-2" dy="2"/>
<feGaussianBlur stdDeviation="1"/>
<feColorMatrix type="matrix" values="0 0 0 0 0 0 0 0 0 0 0 0 0 0 0 0 0 0 0.7 0"/>
<feBlend mode="normal" in2="BackgroundImageFix" result="effect1_dropShadow"/>
<feBlend mode="normal" in="SourceGraphic" in2="effect1_dropShadow" result="shape"/>
</filter>
</defs>
</svg>
