<svg width="232" height="40" viewBox="0 0 232 40" fill="none" xmlns="http://www.w3.org/2000/svg">
<path d="M20 2.42705L23.777 14.0514L23.9454 14.5697H24.4903H36.7129L26.8246 21.7539L26.3837 22.0742L26.5521 22.5924L30.3291 34.2168L20.4408 27.0326L20 26.7123L19.5592 27.0326L9.67088 34.2168L13.4479 22.5924L13.6163 22.0742L13.1754 21.7539L3.28713 14.5697H15.5097H16.0546L16.223 14.0514L20 2.42705Z" stroke="#04292B" stroke-width="1.5"/>
<path d="M68 2.42705L71.777 14.0514L71.9454 14.5697H72.4903H84.7129L74.8246 21.7539L74.3837 22.0742L74.5521 22.5924L78.3291 34.2168L68.4408 27.0326L68 26.7123L67.5592 27.0326L57.6709 34.2168L61.4479 22.5924L61.6163 22.0742L61.1754 21.7539L51.2871 14.5697H63.5097H64.0546L64.223 14.0514L68 2.42705Z" stroke="#04292B" stroke-width="1.5"/>
<path d="M116 2.42705L119.777 14.0514L119.945 14.5697H120.49H132.713L122.825 21.7539L122.384 22.0742L122.552 22.5924L126.329 34.2168L116.441 27.0326L116 26.7123L115.559 27.0326L105.671 34.2168L109.448 22.5924L109.616 22.0742L109.175 21.7539L99.2871 14.5697H111.51H112.055L112.223 14.0514L116 2.42705Z" stroke="#04292B" stroke-width="1.5"/>
<path d="M164 2.42705L167.777 14.0514L167.945 14.5697H168.49H180.713L170.825 21.7539L170.384 22.0742L170.552 22.5924L174.329 34.2168L164.441 27.0326L164 26.7123L163.559 27.0326L153.671 34.2168L157.448 22.5924L157.616 22.0742L157.175 21.7539L147.287 14.5697H159.51H160.055L160.223 14.0514L164 2.42705Z" stroke="#04292B" stroke-width="1.5"/>
<path d="M212 2.42705L215.777 14.0514L215.945 14.5697H216.49H228.713L218.825 21.7539L218.384 22.0742L218.552 22.5924L222.329 34.2168L212.441 27.0326L212 26.7123L211.559 27.0326L201.671 34.2168L205.448 22.5924L205.616 22.0742L205.175 21.7539L195.287 14.5697H207.51H208.055L208.223 14.0514L212 2.42705Z" stroke="#04292B" stroke-width="1.5"/>
</svg>
