<svg width="232" height="40" viewBox="0 0 232 40" fill="none" xmlns="http://www.w3.org/2000/svg">
<path d="M20 0L24.4903 13.8197H39.0211L27.2654 22.3607L31.7557 36.1803L20 27.6393L8.2443 36.1803L12.7346 22.3607L0.97887 13.8197H15.5097L20 0Z" fill="#04292B"/>
<path d="M68 0L72.4903 13.8197H87.0211L75.2654 22.3607L79.7557 36.1803L68 27.6393L56.2443 36.1803L60.7346 22.3607L48.9789 13.8197H63.5097L68 0Z" fill="#04292B"/>
<path d="M116 0L120.49 13.8197H135.021L123.265 22.3607L127.756 36.1803L116 27.6393L104.244 36.1803L108.735 22.3607L96.9789 13.8197H111.51L116 0Z" fill="#04292B"/>
<path d="M164 2.42705L167.777 14.0514L167.945 14.5697H168.49H180.713L170.825 21.7539L170.384 22.0742L170.552 22.5924L174.329 34.2168L164.441 27.0326L164 26.7123L163.559 27.0326L153.671 34.2168L157.448 22.5924L157.616 22.0742L157.175 21.7539L147.287 14.5697H159.51H160.055L160.223 14.0514L164 2.42705Z" stroke="#04292B" stroke-width="1.5"/>
<path d="M212 2.42705L215.777 14.0514L215.945 14.5697H216.49H228.713L218.825 21.7539L218.384 22.0742L218.552 22.5924L222.329 34.2168L212.441 27.0326L212 26.7123L211.559 27.0326L201.671 34.2168L205.448 22.5924L205.616 22.0742L205.175 21.7539L195.287 14.5697H207.51H208.055L208.223 14.0514L212 2.42705Z" stroke="#04292B" stroke-width="1.5"/>
</svg>
