<svg width="232" height="40" viewBox="0 0 232 40" fill="none" xmlns="http://www.w3.org/2000/svg">
<path d="M20 0L24.4903 13.8197H39.0211L27.2654 22.3607L31.7557 36.1803L20 27.6393L8.2443 36.1803L12.7346 22.3607L0.97887 13.8197H15.5097L20 0Z" fill="#04292B"/>
<path d="M68 0L72.4903 13.8197H87.0211L75.2654 22.3607L79.7557 36.1803L68 27.6393L56.2443 36.1803L60.7346 22.3607L48.9789 13.8197H63.5097L68 0Z" fill="#04292B"/>
<path d="M116 0L120.49 13.8197H135.021L123.265 22.3607L127.756 36.1803L116 27.6393L104.244 36.1803L108.735 22.3607L96.9789 13.8197H111.51L116 0Z" fill="#04292B"/>
<path d="M164 0L168.49 13.8197H183.021L171.265 22.3607L175.756 36.1803L164 27.6393L152.244 36.1803L156.735 22.3607L144.979 13.8197H159.51L164 0Z" fill="#04292B"/>
<path d="M212 0L216.49 13.8197H231.021L219.265 22.3607L223.756 36.1803L212 27.6393L200.244 36.1803L204.735 22.3607L192.979 13.8197H207.51L212 0Z" fill="#04292B"/>
</svg>
