<svg width="185" height="52" viewBox="0 0 185 52" fill="none" xmlns="http://www.w3.org/2000/svg">
<path d="M47.8043 24.0507C49.6606 26.1346 51.0324 29.1218 48.6798 36.3743C48.4156 40.0674 41.8183 49.6871 45.9326 50.7252C47.4763 50.2871 46.0849 49.068 48.2459 46.7042C50.4069 44.3404 55.8226 42.6688 59.3624 35.235C62.1942 29.2879 60.454 21.6441 59.2299 18.5655C57.8118 15.8724 55.0741 13.5387 51.3164 14.8147C47.5586 16.0907 46.5582 22.652 47.8043 24.0507Z" stroke="black" stroke-width="1.27162"/>
<path d="M87.8491 24.0507C89.7054 26.1346 91.0772 29.1218 88.7246 36.3743C88.4604 40.0674 81.8631 49.6871 85.9774 50.7252C87.5211 50.2871 86.1297 49.068 88.2907 46.7042C90.4517 44.3404 95.8674 42.6688 99.4072 35.235C102.239 29.2879 100.499 21.6441 99.2747 18.5655C97.8566 15.8724 95.1189 13.5387 91.3612 14.8147C87.6034 16.0907 86.603 22.652 87.8491 24.0507Z" stroke="black" stroke-width="1.27162"/>
<path d="M127.894 24.0507C129.75 26.1346 131.122 29.1218 128.769 36.3743C128.505 40.0674 121.908 49.6871 126.022 50.7252C127.566 50.2871 126.174 49.068 128.335 46.7042C130.496 44.3404 135.912 42.6688 139.452 35.235C142.284 29.2879 140.544 21.6441 139.319 18.5655C137.901 15.8724 135.164 13.5387 131.406 14.8147C127.648 16.0907 126.648 22.652 127.894 24.0507Z" stroke="black" stroke-width="1.27162"/>
<path d="M167.939 24.0507C169.795 26.1346 171.167 29.1218 168.814 36.3743C168.55 40.0674 161.953 49.6871 166.067 50.7252C167.611 50.2871 166.219 49.068 168.38 46.7042C170.541 44.3404 175.957 42.6688 179.497 35.235C182.329 29.2879 180.588 21.6441 179.364 18.5655C177.946 15.8724 175.208 13.5387 171.451 14.8147C167.693 16.0907 166.693 22.652 167.939 24.0507Z" stroke="black" stroke-width="1.27162"/>
<path d="M7.75951 24.1856C9.61589 26.2694 10.9876 29.2566 8.63507 36.5091C8.37081 40.2022 1.7736 49.822 5.88785 50.8601C7.43156 50.4219 6.04018 49.2028 8.20118 46.839C10.3622 44.4753 15.7779 42.8037 19.3177 35.3698C22.1495 29.4227 20.4093 21.7789 19.1852 18.7004C17.767 16.0072 15.0294 13.6736 11.2716 14.9495C7.51384 16.2255 6.51347 22.7868 7.75951 24.1856Z" fill="#FF220C" stroke="black" stroke-width="0.405299"/>
<path d="M49.4098 3.47667C47.0562 6.57645 46.9883 11.0759 47.9986 13.8717C49.3917 17.1745 46.6618 18.2874 47.5219 19.6748C48.1892 19.768 49.778 18.229 50.8714 17.181C52.1251 15.9794 55.6591 15.6295 55.416 15.1076C54.4924 13.1244 51.0586 16.5037 49.2628 10.3162C48.3054 7.01753 51.5472 3.48612 52.5512 3.14164C53.121 3.51914 53.0781 4.79472 55.0037 3.5375C56.9294 2.28029 54.6152 1.60672 53.4013 1.35271C52.5676 1.24075 50.9592 1.43601 49.4098 3.47667Z" fill="#C3D74B" stroke="black" stroke-width="0.405299"/>
<path d="M89.4545 3.47667C87.1009 6.57645 87.033 11.0759 88.0433 13.8717C89.4363 17.1745 86.7065 18.2874 87.5666 19.6748C88.2339 19.768 89.8227 18.229 90.9161 17.181C92.1698 15.9794 95.7038 15.6295 95.4607 15.1076C94.537 13.1244 91.1032 16.5037 89.3074 10.3162C88.3501 7.01753 91.5919 3.48612 92.5959 3.14164C93.1657 3.51914 93.1228 4.79472 95.0484 3.5375C96.974 2.28029 94.6599 1.60672 93.4459 1.35271C92.6123 1.24075 91.0039 1.43601 89.4545 3.47667Z" fill="#C3D74B" stroke="black" stroke-width="0.405299"/>
<path d="M129.499 3.47667C127.146 6.57645 127.078 11.0759 128.088 13.8717C129.481 17.1745 126.751 18.2874 127.611 19.6748C128.279 19.768 129.868 18.229 130.961 17.181C132.215 15.9794 135.749 15.6295 135.506 15.1076C134.582 13.1244 131.148 16.5037 129.352 10.3162C128.395 7.01753 131.637 3.48612 132.641 3.14164C133.211 3.51914 133.168 4.79472 135.093 3.5375C137.019 2.28029 134.705 1.60672 133.491 1.35271C132.657 1.24075 131.049 1.43601 129.499 3.47667Z" fill="#C3D74B" stroke="black" stroke-width="0.405299"/>
<path d="M169.544 3.47667C167.19 6.57645 167.123 11.0759 168.133 13.8717C169.526 17.1745 166.796 18.2874 167.656 19.6748C168.323 19.768 169.912 18.229 171.006 17.181C172.259 15.9794 175.793 15.6295 175.55 15.1076C174.627 13.1244 171.193 16.5037 169.397 10.3162C168.44 7.01753 171.681 3.48612 172.685 3.14164C173.255 3.51914 173.212 4.79472 175.138 3.5375C177.064 2.28029 174.749 1.60672 173.535 1.35271C172.702 1.24075 171.093 1.43601 169.544 3.47667Z" fill="#C3D74B" stroke="black" stroke-width="0.405299"/>
<path d="M9.365 3.47667C7.01142 6.57645 6.94351 11.0759 7.95381 13.8717C9.34686 17.1745 6.61705 18.2874 7.47713 19.6748C8.14442 19.768 9.73322 18.229 10.8266 17.181C12.0803 15.9794 15.6143 15.6295 15.3712 15.1076C14.4476 13.1244 11.0138 16.5037 9.21796 10.3162C8.26059 7.01753 11.5024 3.48612 12.5064 3.14164C13.0762 3.51914 13.0333 4.79472 14.9589 3.5375C16.8846 2.28029 14.5704 1.60672 13.3565 1.35271C12.5228 1.24075 10.9144 1.43601 9.365 3.47667Z" fill="#C3D74B" stroke="black" stroke-width="0.405299"/>
</svg>
