<svg width="185" height="52" viewBox="0 0 185 52" fill="none" xmlns="http://www.w3.org/2000/svg">
<path d="M127.894 24.126C129.75 26.2098 131.122 29.197 128.769 36.4495C128.505 40.1426 121.908 49.7623 126.022 50.8005C127.566 50.3623 126.174 49.1432 128.335 46.7794C130.496 44.4157 135.912 42.7441 139.452 35.3102C142.284 29.3631 140.544 21.7193 139.319 18.6408C137.901 15.9476 135.164 13.614 131.406 14.8899C127.648 16.1659 126.648 22.7272 127.894 24.126Z" stroke="black" stroke-width="1.27162"/>
<path d="M167.939 24.126C169.795 26.2098 171.167 29.197 168.814 36.4495C168.55 40.1426 161.953 49.7623 166.067 50.8005C167.611 50.3623 166.219 49.1432 168.38 46.7794C170.541 44.4157 175.957 42.7441 179.497 35.3102C182.329 29.3631 180.588 21.7193 179.364 18.6408C177.946 15.9476 175.208 13.614 171.451 14.8899C167.693 16.1659 166.693 22.7272 167.939 24.126Z" stroke="black" stroke-width="1.27162"/>
<path d="M7.75951 24.2608C9.61589 26.3446 10.9876 29.3318 8.63507 36.5843C8.37081 40.2774 1.7736 49.8972 5.88785 50.9353C7.43156 50.4972 6.04018 49.278 8.20118 46.9143C10.3622 44.5505 15.7779 42.8789 19.3177 35.445C22.1495 29.498 20.4093 21.8541 19.1852 18.7756C17.767 16.0824 15.0294 13.7488 11.2716 15.0248C7.51384 16.3007 6.51347 22.8621 7.75951 24.2608Z" fill="#FF220C" stroke="black" stroke-width="0.405299"/>
<path d="M47.6035 24.2608C49.4599 26.3446 50.8316 29.3318 48.4791 36.5843C48.2148 40.2774 41.6176 49.8972 45.7318 50.9353C47.2756 50.4972 45.8842 49.278 48.0452 46.9143C50.2062 44.5505 55.6219 42.8789 59.1617 35.445C61.9935 29.498 60.2533 21.8541 59.0292 18.7756C57.611 16.0824 54.8734 13.7488 51.1156 15.0248C47.3578 16.3007 46.3575 22.8621 47.6035 24.2608Z" fill="#FF220C" stroke="black" stroke-width="0.405299"/>
<path d="M87.4475 24.2608C89.3039 26.3446 90.6756 29.3318 88.3231 36.5843C88.0588 40.2774 81.4616 49.8972 85.5758 50.9353C87.1196 50.4972 85.7282 49.278 87.8892 46.9143C90.0502 44.5505 95.4659 42.8789 99.0057 35.445C101.837 29.498 100.097 21.8541 98.8732 18.7756C97.455 16.0824 94.7174 13.7488 90.9596 15.0248C87.2018 16.3007 86.2015 22.8621 87.4475 24.2608Z" fill="#FF220C" stroke="black" stroke-width="0.405299"/>
<path d="M129.499 3.55191C127.146 6.65168 127.078 11.1512 128.088 13.9469C129.481 17.2497 126.751 18.3626 127.611 19.7501C128.279 19.8432 129.868 18.3042 130.961 17.2563C132.215 16.0547 135.749 15.7048 135.506 15.1829C134.582 13.1996 131.148 16.5789 129.352 10.3914C128.395 7.09277 131.637 3.56135 132.641 3.21687C133.211 3.59437 133.168 4.86995 135.093 3.61274C137.019 2.35553 134.705 1.68196 133.491 1.42794C132.657 1.31598 131.049 1.51125 129.499 3.55191Z" fill="#C3D74B" stroke="black" stroke-width="0.405299"/>
<path d="M169.544 3.55191C167.19 6.65168 167.123 11.1512 168.133 13.9469C169.526 17.2497 166.796 18.3626 167.656 19.7501C168.323 19.8432 169.912 18.3042 171.006 17.2563C172.259 16.0547 175.793 15.7048 175.55 15.1829C174.627 13.1996 171.193 16.5789 169.397 10.3914C168.44 7.09277 171.681 3.56135 172.685 3.21687C173.255 3.59437 173.212 4.86995 175.138 3.61274C177.064 2.35553 174.749 1.68196 173.535 1.42794C172.702 1.31598 171.093 1.51125 169.544 3.55191Z" fill="#C3D74B" stroke="black" stroke-width="0.405299"/>
<path d="M9.365 3.55191C7.01142 6.65168 6.94351 11.1512 7.95381 13.9469C9.34686 17.2497 6.61705 18.3626 7.47713 19.7501C8.14442 19.8432 9.73322 18.3042 10.8266 17.2563C12.0803 16.0547 15.6143 15.7048 15.3712 15.1829C14.4476 13.1996 11.0138 16.5789 9.21796 10.3914C8.26059 7.09277 11.5024 3.56135 12.5064 3.21687C13.0762 3.59437 13.0333 4.86995 14.9589 3.61274C16.8846 2.35553 14.5704 1.68196 13.3565 1.42794C12.5228 1.31598 10.9144 1.51125 9.365 3.55191Z" fill="#C3D74B" stroke="black" stroke-width="0.405299"/>
<path d="M49.209 3.55191C46.8554 6.65168 46.7875 11.1512 47.7978 13.9469C49.1909 17.2497 46.461 18.3626 47.3211 19.7501C47.9884 19.8432 49.5772 18.3042 50.6706 17.2563C51.9243 16.0547 55.4583 15.7048 55.2152 15.1829C54.2916 13.1996 50.8578 16.5789 49.062 10.3914C48.1046 7.09277 51.3464 3.56135 52.3504 3.21687C52.9202 3.59437 52.8773 4.86995 54.8029 3.61274C56.7286 2.35553 54.4144 1.68196 53.2005 1.42794C52.3668 1.31598 50.7584 1.51125 49.209 3.55191Z" fill="#C3D74B" stroke="black" stroke-width="0.405299"/>
<path d="M89.053 3.55191C86.6994 6.65168 86.6315 11.1512 87.6418 13.9469C89.0348 17.2497 86.305 18.3626 87.1651 19.7501C87.8324 19.8432 89.4212 18.3042 90.5146 17.2563C91.7683 16.0547 95.3023 15.7048 95.0592 15.1829C94.1356 13.1996 90.7018 16.5789 88.906 10.3914C87.9486 7.09277 91.1904 3.56135 92.1944 3.21687C92.7642 3.59437 92.7213 4.86995 94.6469 3.61274C96.5725 2.35553 94.2584 1.68196 93.0444 1.42794C92.2108 1.31598 90.6024 1.51125 89.053 3.55191Z" fill="#C3D74B" stroke="black" stroke-width="0.405299"/>
</svg>
